<svg width="60" height="60" viewBox="0 0 60 60" fill="none" xmlns="http://www.w3.org/2000/svg">
<g clip-path="url(#clip0_9_15)">
<mask id="mask0_9_15" style="mask-type:luminance" maskUnits="userSpaceOnUse" x="0" y="0" width="60" height="60">
<path d="M60 0H0V60H60V0Z" fill="white"/>
</mask>
<g mask="url(#mask0_9_15)">
<path opacity="0.976471" d="M48.3281 3.79688H48.3398H50.0508H50.0625V3.84375H50.0742H50.3789H50.3906V3.89062H50.4023H50.5664H50.5781V3.9375H50.5898H50.8008H50.8125V3.98438H50.8242H50.9414H50.9531V4.03125H51.0469V4.07812H51.0937V4.08984V4.25391V4.26562H51.0469V4.35938H51V4.40625H50.9531V4.45312H50.8594V4.5H50.8477H50.7305H50.7187V4.54688H50.707H50.5898H50.5781V4.59375H50.5664H50.3086H50.2969V4.64062H50.2852H50.1211H50.1094V4.6875H50.0977H49.9336H49.9219V4.73438H49.9102H49.6523H49.6406V4.78125H49.6289H49.1367H49.125V4.82812H49.1133H48.5742H48.5625V4.875H48.5508H48.1992H48.1875V4.92188H48.1758H47.7773H47.7656V4.96875H47.7539H47.4023H47.3906V5.01562H47.3789H46.9805H46.9687V5.0625H46.957H46.3711H46.3594V5.10938H46.3477H45.9492H45.9375V5.15625H45.9258H45.6211H45.6094V5.20312H45.5977H45.293H45.2812V5.25H45.2695H44.8711H44.8594V5.29688H44.8477H44.3086H44.2969V5.34375H44.2852H43.9805H43.9687V5.39062H43.957H43.6055H43.5937V5.4375H43.582H43.2305H43.2187V5.48438H43.207H42.7617H42.75V5.53125H42.7383H42.3867H42.375V5.57812H42.3633H41.918H41.9062V5.625H41.8945H41.168H41.1562V5.67188H41.1445H39.7148H39.7031V5.71875H39.6914H38.918H38.9062V5.76562H38.8945H38.5898H38.5781V5.8125H38.5664H38.3555H38.3437V5.85938H38.332H37.9336H37.9219V5.90625H37.9102H37.6523H37.6406V5.95312H37.6289H37.2773H37.2656V6H37.2539H36.9961H36.9844V6.04688H36.9727H36.7148H36.7031V6.09375H36.6914H36.4336H36.4219V6.14062H36.4102H36.0586H36.0469V6.1875H36.0352H35.6367H35.625V6.23438H35.6133H35.3086H35.2969V6.28125H35.2852H34.8867H34.875V6.32812H34.8633H34.4648H34.4531V6.375H34.4414H34.043H34.0312V6.42188H34.0195H33.5273H33.5156V6.46875H33.5039H33.1055H33.0937V6.51562H33.082H32.7773H32.7656V6.5625H32.7539H32.4492H32.4375V6.60938H32.4258H32.2617H32.25V6.65625H32.2383H32.0273H32.0156V6.70312H32.0039H31.793H31.7812V6.75H31.7695H31.6055H31.5937V6.79688H31.582H31.3711H31.3594V6.84375H31.3477H30.9492H30.9375V6.89062H30.9258H30.5273H30.5156V6.9375H30.5039H30.2461H30.2344V6.98438H30.2227H29.7773H29.7656V7.03125H29.7539H29.4492H29.4375V7.07812H29.4258H29.168H29.1562V7.125H29.1445H28.8867H28.875V7.17188H28.8633H28.6055H28.5937V7.21875H28.582H28.418H28.4062V7.26562H28.3125V7.3125H28.2187V7.40625H28.3125V7.45312H28.4062V7.5H28.5V7.54688H28.5937V7.59375H28.6875V7.64062H28.7812V7.6875H28.875V7.73438C28.8867 7.73438 28.914 7.73438 28.957 7.73438H28.9687V7.78125H29.0625V7.82812H29.1094V7.875H29.2031V7.92188H29.2969V7.96875C29.3086 7.96875 29.3359 7.96875 29.3789 7.96875H29.3906V8.01562H29.4844V8.0625H29.5312V8.10938H29.625V8.15625H29.7187V8.20312H29.8125V8.25C29.8242 8.25 29.8515 8.25 29.8945 8.25H29.9062V8.29688H30V8.34375H30.0469V8.39062H30.1406V8.4375H30.2344V8.48438H30.3281V8.53125C30.3398 8.53125 30.3672 8.53125 30.4102 8.53125H30.4219V8.57812H30.5156V8.625H30.5625V8.67188H30.6094V8.71875H30.7031V8.76562H30.75V8.8125H30.8437V8.85938H30.9375V8.90625C30.9492 8.90625 30.9765 8.90625 31.0195 8.90625H31.0312V8.95312H31.125V9H31.1719V9.04688H31.2656V9.09375H31.3125V9.14062H31.4062V9.1875C31.418 9.1875 31.4453 9.1875 31.4883 9.1875H31.5V9.23438H31.5937V9.28125H31.6406V9.32812H31.6875V9.375H31.7812V9.42188H31.8281V9.46875H31.875V9.51562C31.8867 9.51562 31.914 9.51562 31.957 9.51562H31.9687V9.5625H32.0625V9.60938H32.1094V9.65625H32.1562V9.70312H32.2031V9.75H32.25V9.79688H32.3437V9.84375H32.3906V9.89062H32.4844V9.9375H32.5312V9.98438C32.543 9.98438 32.5703 9.98438 32.6133 9.98438H32.625V10.0312H32.7187V10.0781H32.7656V10.125H32.8125V10.1719H32.8594V10.2188H32.9531V10.2656H33V10.3125H33.0937V10.4062H33.1406V10.4531H33.1875V10.5H33.2812V10.5469H33.3281V10.5938H33.4219V10.6406H33.4687V10.6875H33.5156V10.7344H33.5625V10.7812H33.6094V10.8281H33.7031V10.875H33.75V10.9219H33.7969V10.9688H33.8437V11.0156H33.9375V11.0625H33.9844V11.1094H34.0312V11.2031H34.0781V11.25H34.125V11.2969H34.1719V11.3438H34.2187V11.3906H34.2656V11.4375H34.3594V11.4844H34.4062V11.5312H34.4531V11.5781H34.5V11.625H34.5469V11.6719H34.5937V11.7188H34.6406V11.7656H34.6875V11.8125H34.7344V11.8594H34.7812V11.9062H34.8281V11.9531H34.875V12H34.9219V12.0469H34.9687V12.0938H35.0156V12.1406H35.0625V12.1875H35.1094V12.2344H35.1562V12.2812H35.2031V12.3281H35.25V12.4219H35.2969V12.4688H35.3437V12.5156H35.3906V12.5625H35.4375V12.6094H35.4844V12.6562H35.5312V12.7031H35.5781V12.75H35.625V12.7969H35.6719V12.8906H35.7187V12.9375H35.7656V13.0312H35.8125V13.0781H35.8594V13.125H35.9062V13.1719H35.9531V13.2188H36V13.2656H36.0469V13.3125H36.0937V13.3594H36.1406V13.4531H36.1875V13.5H36.2344V13.5469H36.2812V13.6406H36.3281V13.6875H36.375V13.7812H36.4219V13.8281H36.4687V13.875H36.5156V13.9219H36.5625V13.9688H36.6094V14.0156H36.6562V14.0625H36.7031V14.1562H36.75V14.2031H36.7969V14.2969H36.8437V14.3438H36.8906V14.3906H36.9375V14.4375H36.9844V14.4844H37.0312V14.5781H37.0781V14.625H37.125V14.6719H37.1719V14.7188H37.2187V14.8125H37.2656V14.8594H37.3125V14.9062H37.3594V15H37.4062V15.0938H37.4531V15.1406H37.5V15.2344H37.5469V15.2812H37.5937V15.3281H37.6406V15.375H37.6875V15.4688H37.7344V15.5156H37.7812V15.6094H37.8281V15.6562H37.875V15.7031H37.9219V15.7969H37.9687V15.8438H38.0156V15.9375H38.0625V15.9844H38.1094V16.0781H38.1562V16.125H38.2031V16.1719H38.25V16.2656H38.2969V16.3125H38.3437V16.4062H38.3906V16.4531H38.4375C38.4375 16.4648 38.4375 16.4922 38.4375 16.5352V16.5469H38.4844V16.6406H38.5312V16.6875H38.5781V16.7344H38.625V16.7812H38.6719V16.875H38.7187C38.7187 16.8867 38.7187 16.914 38.7187 16.957V16.9688H38.7656V17.0625H38.8125V17.1094H38.8594V17.1562H38.9062V17.25H38.9531V17.2969H39V17.3086V17.4258V17.4375H39.0469V17.4844H39.0937V17.5312H39.1406C39.1406 17.543 39.1406 17.5703 39.1406 17.6133V17.625H39.1875V17.7188H39.2344V17.7656H39.2812V17.8125H39.3281C39.3281 17.8242 39.3281 17.8515 39.3281 17.8945V17.9062H39.375V18H39.4219V18.0469H39.4687V18.1406H39.5156V18.1875H39.5625V18.2812H39.6094V18.3281H39.6562C39.6562 18.3398 39.6562 18.3672 39.6562 18.4102V18.4219H39.7031V18.5156H39.75V18.5625H39.7969V18.6562H39.8437V18.7031H39.8906V18.7148V18.832V18.8438H39.9375V18.8906H39.9844V18.9844H40.0312V19.0312H40.0781V19.125H40.125V19.2188H40.1719C40.1719 19.2305 40.1719 19.2578 40.1719 19.3008V19.3125H40.2187V19.4062H40.2656V19.4531H40.3125V19.5469H40.3594V19.5938H40.4062C40.4062 19.6055 40.4062 19.6328 40.4062 19.6758V19.6875H40.4531V19.7812H40.5V19.8281H40.5469V19.875H40.5937V19.9688H40.6406C40.6406 19.9805 40.6406 20.0078 40.6406 20.0508V20.0625H40.6875V20.1562H40.7344V20.2031H40.7812V20.2969H40.8281V20.3906H40.875V20.4844H40.9219C40.9219 20.4961 40.9219 20.5234 40.9219 20.5664V20.5781H40.9687V20.6719H41.0156V20.7188H41.0625V20.7656H41.1094V20.8594H41.1562V20.9531H41.2031V20.9648V21.082V21.0938H41.25V21.1406H41.2969C41.2969 21.1523 41.2969 21.1797 41.2969 21.2227V21.2344H41.3437V21.3281H41.3906V21.375H41.4375C41.4375 21.3867 41.4375 21.414 41.4375 21.457V21.4688H41.4844V21.5625H41.5312V21.6094H41.5781V21.7031H41.625V21.7969H41.6719V21.8906H41.7187V21.9844H41.7656C41.7656 21.9961 41.7656 22.0234 41.7656 22.0664V22.0781H41.8125V22.1719H41.8594V22.2188H41.9062V22.2305V22.3477V22.3594H41.9531V22.4531H42V22.5H42.0469V22.5938H42.0937V22.6875H42.1406V22.7812H42.1875V22.875H42.2344V22.8867V23.0039V23.0156H42.2812V23.0625H42.3281V23.1562H42.375V23.25H42.4219V23.3438H42.4687C42.4687 23.3555 42.4687 23.3828 42.4687 23.4258V23.4375H42.5156V23.5312H42.5625V23.5781H42.6094V23.6719H42.6562V23.7656H42.7031V23.8594H42.75V23.9531H42.7969V24.0469H42.8437V24.1406H42.8906C42.8906 24.1523 42.8906 24.1797 42.8906 24.2227V24.2344H42.9375V24.3281H42.9844V24.3398V24.457V24.4688H43.0312V24.5625H43.0781V24.5742V24.6914V24.7031H43.125V24.75H43.1719V24.8438H43.2187V24.9375H43.2656V25.0312H43.3125V25.125H43.3594V25.2188H43.4062V25.3125H43.4531V25.4062H43.5V25.5H43.5469V25.5938H43.5937V25.6875H43.6406V25.6992V25.8164V25.8281H43.6875V25.9219H43.7344V26.0156H43.7812V26.1094H43.8281V26.1211V26.2383V26.25H43.875V26.2969H43.9219V26.3086V26.4258V26.4375H43.9687V26.5312H44.0156V26.625H44.0625V26.7188H44.1094V26.7305V26.8477V26.8594H44.1562V26.9531H44.2031V27.0469H44.25V27.1406H44.2969V27.1523V27.2695V27.2812H44.3437V27.3281H44.3906V27.3398V27.457V27.4688H44.4375V27.5625H44.4844V27.6562H44.5312V27.75H44.5781V27.8438H44.625V27.8555V27.9727V27.9844H44.6719V27.9961V28.1602V28.1719H44.7187V28.2656H44.7656V28.3594H44.8125V28.4531H44.8594V28.5469H44.9062V28.6406H44.9531V28.6523V28.7695V28.7812H45V28.875H45.0469V28.8867V29.0039V29.0156H45.0937V29.1094H45.1406V29.1211V29.2383V29.25H45.1875V29.3438H45.2344V29.4375H45.2812V29.4492V29.5664V29.5781H45.3281V29.5898V29.707V29.7188H45.375V29.8125H45.4219V29.8242V29.9414V29.9531H45.4687V30.0469H45.5156V30.0586V30.1758V30.1875H45.5625V30.2812H45.6094V30.293V30.4102V30.4219H45.6562V30.5156H45.7031V30.5273V30.6445V30.6562H45.75V30.75H45.7969V30.7617V30.9258V30.9375H45.8437V31.0312H45.8906V31.043V31.1602V31.1719H45.9375V31.1836V31.3008V31.3125H45.9844V31.4062H46.0312V31.418V31.5352V31.5469H46.0781V31.6406H46.125V31.6523V31.7695V31.7812H46.1719V31.793V31.9102V31.9219H46.2187V31.9336V32.0508V32.0625H46.2656V32.0742V32.1914V32.2031H46.3125V32.2148V32.332V32.3438H46.3594V32.3555V32.4727V32.4844H46.4062V32.4961V32.6133V32.625H46.4531V32.7188H46.5V32.7305V32.8945V32.9062H46.5469V33H46.5937V33.0117V33.1289V33.1406H46.6406V33.1523V33.2695V33.2812H46.6875V33.293V33.457V33.4688H46.7344V33.4805V33.5977V33.6094H46.7812V33.7031H46.8281V33.7148V33.8789V33.8906H46.875V33.9023V34.0195V34.0312H46.9219V34.043V34.1602V34.1719H46.9687V34.1836V34.3008V34.3125H47.0156V34.3242V34.4414V34.4531H47.0625V34.4648V34.6758V34.6875H47.1094V34.7812H47.1562V34.793V34.957V34.9688H47.2031V34.9805V35.1914V35.2031H47.25V35.2969H47.2969V35.3086V35.4258V35.4375H47.3437V35.4492V35.6602V35.6719H47.3906V35.7656H47.4375V35.7773V35.9414V35.9531H47.4844V35.9648V36.082V36.0938H47.5312V36.1055V36.3164V36.3281H47.5781V36.3398V36.457V36.4688H47.625V36.4805V36.6445V36.6562H47.6719V36.668V36.8789V36.8906H47.7187V36.9023V37.0664V37.0781H47.7656V37.0898V37.207V37.2188H47.8125V37.2305V37.4414V37.4531H47.8594V37.4648V37.582V37.5938H47.9062V37.6055V37.8164V37.8281H47.9531V37.8398V38.0508V38.0625H48V38.0742V38.2383V38.25H48.0469V38.2617V38.4258V38.4375H48.0937V38.4492V38.707V38.7188H48.1406V38.7305V38.8945V38.9062H48.1875V38.918V39.1758V39.1875H48.2344V39.1992V39.3633V39.375H48.2812V39.3867V39.5977V39.6094H48.3281V39.6211V39.8789V39.8906H48.375V39.9023V40.1602V40.1719H48.4219V40.1836V40.4414V40.4531H48.4687V40.4648V40.7695V40.7812H48.5156V40.793V40.957V40.9688H48.5625V40.9805V41.332V41.3438H48.6094V41.3555V41.6602V41.6719H48.6562V41.6836V42.0352V42.0469H48.7031V42.0586V42.4102V42.4219H48.75V42.4336V43.0195V43.0312H48.7969V43.043V43.7227V43.7344H48.8437V43.7461V44.4727V44.4844H48.7969V44.5781H48.8437V44.5898V44.8008V44.8125H48.7969V44.8242V45.2695V45.2812H48.75V45.293V45.5977V45.6094H48.7031V45.6211V45.832V45.8438H48.6562V45.8555V46.0664V46.0781H48.6094V46.0898V46.207V46.2188H48.5625V46.2305V46.4414V46.4531H48.5156V46.5469H48.4687V46.6406H48.4219V46.7344H48.375V46.8281H48.3281V46.9219H48.2812V46.9688H48.2344C48.2344 46.9805 48.2344 47.0077 48.2344 47.0508V47.0625H48.1875V47.1562H48.1406V47.2031H48.0937V47.25H48.0469V47.2969H48V47.3438H47.9531V47.3906H47.9062V47.4375H47.8125V47.4844H47.7187V47.5312H47.625V47.5781H47.6133H47.4961H47.4844V47.625H47.4727H47.3555H47.3437V47.6719H47.332H47.1211H47.1094V47.7188H47.0977H46.793H46.7812V47.7656H46.7695H46.0898H46.0781V47.7188H46.0664H45.5742H45.5625V47.6719H45.5508H45.2461H45.2344V47.625H45.2227H45.0117H45V47.5781H44.9883H44.7305H44.7187V47.5312H44.707H44.543H44.5312V47.4844H44.5195H44.3555H44.3437V47.4375H44.332H44.168H44.1562V47.3906H44.1445H44.0273H44.0156V47.3438H43.9219V47.2969H43.9102H43.793H43.7812V47.25H43.7695H43.6523H43.6406V47.2031H43.6289H43.5117H43.5V47.1562H43.4062V47.1094H43.3125V47.0625H43.2187V47.0156H43.125V46.9688H43.1133H42.9961H42.9844V46.9219H42.8906V46.875H42.8789H42.7617H42.75V46.8281C42.7383 46.8281 42.7109 46.8281 42.668 46.8281H42.6562V46.7812H42.5625V46.7344H42.5156V46.6875C42.5039 46.6875 42.4766 46.6875 42.4336 46.6875H42.4219V46.6406H42.3281V46.5938H42.2812V46.5469H42.1875V46.5H42.1406V46.4531H42.0937V46.4062H42V46.3594H41.9531V46.3125C41.9414 46.3125 41.9141 46.3125 41.8711 46.3125H41.8594V46.2656H41.7656V46.2188H41.7187V46.1719H41.6719V46.125H41.625V46.0781H41.5781V46.0312H41.5312V45.9844H41.4375V45.9375H41.3906V45.8906H41.2969V45.8438H41.25V45.7969H41.2031V45.75H41.1094V45.7031H41.0625V45.6562H41.0156V45.6094H40.9687V45.5625H40.9219V45.5156H40.875V45.4688H40.8281V45.4219H40.7812V45.375H40.7344V45.3281H40.6875V45.2812H40.6406V45.2344H40.5469V45.1875H40.5V45.1406H40.4531V45.0469H40.4062V45H40.3125V44.9531H40.2656V44.8594H40.2187V44.8125H40.1719V44.7656H40.125V44.7188H40.0781V44.6719H40.0312V44.625H39.9844V44.5781H39.9375V44.4844H39.8906V44.4375H39.8437V44.3906H39.7969V44.3438H39.75V44.2969H39.7031V44.2031H39.6562V44.1562H39.6094V44.1094H39.5625V44.0156H39.5156V43.9688H39.4687V43.9219H39.4219V43.875H39.375V43.8281H39.3281V43.7812H39.2812V43.6875H39.2344V43.6406H39.1875V43.5938H39.1406V43.5H39.0937V43.4531H39.0469V43.4062H39V43.3125H38.9531V43.2656H38.9062V43.2188H38.8594V43.1719H38.8125V43.0781H38.7656V43.0312H38.7187V42.9375H38.6719V42.8906H38.625V42.7969H38.5781V42.75H38.5312V42.7031H38.4844V42.6562H38.4375V42.5625H38.3906C38.3906 42.5508 38.3906 42.5235 38.3906 42.4805V42.4688H38.3437V42.375H38.2969V42.3281H38.25V42.2344H38.2031V42.1875H38.1562V42.1406H38.1094V42.0938H38.0625V42H38.0156V41.9531H37.9687V41.9062H37.9219V41.8125H37.875V41.7656H37.8281C37.8281 41.7539 37.8281 41.7266 37.8281 41.6836V41.6719H37.7812V41.5781H37.7344V41.5312H37.6875C37.6875 41.5195 37.6875 41.4922 37.6875 41.4492V41.4375H37.6406V41.3438H37.5937V41.2969H37.5469V41.2031H37.5V41.1562H37.4531C37.4531 41.1445 37.4531 41.1172 37.4531 41.0742V41.0625H37.4062V40.9688H37.3594V40.9219H37.3125V40.875H37.2656V40.7812H37.2187V40.7344H37.1719V40.6875H37.125V40.5938H37.0781V40.5H37.0312C37.0312 40.4883 37.0312 40.461 37.0312 40.418V40.4062H36.9844V40.3125H36.9375V40.2656H36.8906V40.1719H36.8437V40.125H36.7969V40.0781H36.75C36.75 40.0664 36.75 40.0391 36.75 39.9961V39.9844H36.7031V39.8906H36.6562V39.8438H36.6094C36.6094 39.832 36.6094 39.8047 36.6094 39.7617V39.75H36.5625V39.6562H36.5156V39.6094H36.4687V39.5156H36.4219C36.4219 39.5039 36.4219 39.4766 36.4219 39.4336V39.4219H36.375V39.3281H36.3281V39.2812H36.2812V39.2344H36.2344V39.1406H36.1875V39.0938H36.1406V39.082V38.9648V38.9531H36.0937V38.8594H36.0469V38.8125H36V38.7656H35.9531V38.6719H35.9062V38.625H35.8594V38.5781H35.8125C35.8125 38.5664 35.8125 38.5391 35.8125 38.4961V38.4844H35.7656V38.3906H35.7187V38.3438H35.6719V38.2969H35.625V38.2031H35.5781V38.1914V38.0742V38.0625H35.5312V38.0156H35.4844V37.9688H35.4375V37.875H35.3906V37.8281H35.3437C35.3437 37.8164 35.3437 37.7891 35.3437 37.7461V37.7344H35.2969V37.6406H35.25V37.5938H35.2031V37.5H35.1562V37.4531H35.1094C35.1094 37.4414 35.1094 37.4141 35.1094 37.3711V37.3594H35.0625V37.2656H35.0156V37.2188H34.9687V37.125H34.9219V37.0781H34.875V36.9844H34.8281V36.9375H34.7812V36.8438H34.7344V36.7969H34.6875V36.7031H34.6406C34.6406 36.6914 34.6406 36.6641 34.6406 36.6211V36.6094H34.5937V36.5156H34.5469V36.4688H34.5V36.4219H34.4531C34.4531 36.4102 34.4531 36.3828 34.4531 36.3398V36.3281H34.4062V36.2344H34.3594V36.1875H34.3125C34.3125 36.1758 34.3125 36.1485 34.3125 36.1055V36.0938H34.2656V36H34.2187V35.9531H34.1719V35.9062H34.125C34.125 35.8945 34.125 35.8672 34.125 35.8242V35.8125H34.0781V35.7188H34.0312V35.6719H33.9844V35.625H33.9375V35.5312H33.8906V35.4844H33.8437V35.3906H33.7969C33.7969 35.3789 33.7969 35.3516 33.7969 35.3086V35.2969H33.75V35.2031H33.7031V35.1562H33.6562V35.0625H33.6094V35.0156H33.5625V34.9219H33.5156C33.5156 34.9102 33.5156 34.8828 33.5156 34.8398V34.8281H33.4687V34.7344H33.4219V34.6875H33.375V34.6406H33.3281V34.5469H33.2812V34.5H33.2344V34.4531H33.1875V34.4414V34.3242V34.3125H33.1406V34.2656H33.0937V34.1719H33.0469V34.125H33V34.0781H32.9531C32.9531 34.0664 32.9531 34.0391 32.9531 33.9961V33.9844H32.9062V33.8906H32.8594V33.8438H32.8125V33.75H32.7656V33.7031H32.7187V33.6094H32.6719C32.6719 33.5977 32.6719 33.5703 32.6719 33.5273V33.5156H32.625V33.4219H32.5781V33.375H32.5312V33.3281H32.4844V33.2344H32.4375V33.1875H32.3906V33.0938H32.3437V33.0469H32.2969V32.9531H32.25C32.25 32.9414 32.25 32.9141 32.25 32.8711V32.8594H32.2031V32.7656H32.1562V32.7188H32.1094V32.625H32.0625V32.5781H32.0156V32.5312H31.9687V32.4375H31.9219V32.3906H31.875V32.2969H31.8281V32.2852V32.168V32.1562H31.7812V32.1094H31.7344V32.0625H31.6875V31.9688H31.6406V31.9219H31.5937V31.875H31.5469V31.7812H31.5V31.7344H31.4531V31.6406H31.4062C31.4062 31.6289 31.4062 31.6016 31.4062 31.5586V31.5469H31.3594V31.4531H31.3125V31.4062H31.2656V31.3594H31.2187V31.2656H31.1719V31.2188H31.125V31.125H31.0781C31.0781 31.1133 31.0781 31.086 31.0781 31.043V31.0312H31.0312V30.9375H30.9844V30.8906H30.9375V30.7969H30.8906V30.75H30.8437V30.7031H30.7969V30.6094H30.75C30.75 30.5977 30.75 30.5703 30.75 30.5273V30.5156H30.7031V30.4219H30.6562V30.375H30.6094V30.3281H30.5625V30.2344H30.5156V30.2227V30.1055V30.0938H30.4687V30.0469H30.4219V30H30.375V29.9531H30.3281V29.9062H30.2812V29.8594H30.2344V29.7656H30.1875V29.6719H30.1406V29.625H30.0937V29.5312H30.0469V29.4375H30C30 29.4258 30 29.3985 30 29.3555V29.3438H29.9531V29.25H29.9062V29.2031H29.8594V29.1562H29.8125V29.1094H29.7656V29.0625H29.7187V28.9688H29.6719V28.9219H29.625V28.8281H29.5781C29.5781 28.8164 29.5781 28.7891 29.5781 28.7461V28.7344H29.5312V28.6406H29.4844V28.5938H29.4375V28.5469H29.3906V28.5H29.3437V28.4883V28.3711V28.3594H29.2969V28.3125H29.25V28.2188H29.2031V28.1719H29.1562V28.125H29.1094V28.0781H29.0625V28.0664V27.9492V27.9375H29.0156V27.8906H28.9687V27.8438H28.9219V27.7969H28.875V27.75H28.8281V27.7031H28.7812C28.7812 27.6914 28.7812 27.6641 28.7812 27.6211V27.6094H28.7344V27.5156H28.6875V27.4688H28.6406V27.375H28.5937V27.3281H28.5469V27.2344H28.5V27.1406H28.4531V27.0938H28.4062V27H28.3594V26.9531H28.3125V26.9062H28.2656V26.8594H28.2187V26.7656H28.1719V26.7188H28.125V26.625H28.0781V26.5312H28.0312V26.4844H27.9844V26.3906H27.9375V26.3438H27.8906V26.2969H27.8437V26.25H27.7969C27.7969 26.2383 27.7969 26.211 27.7969 26.168V26.1562H27.75V26.0625H27.7031V26.0156H27.6562V25.9688H27.6094V25.9219H27.5625V25.875H27.5156V25.7812H27.4687V25.7344H27.4219V25.6875H27.375V25.6758V25.5586V25.5469H27.3281V25.5H27.2812V25.4531H27.2344V25.4062H27.1875V25.3125H27.1406V25.2656H27.0937V25.2188H27.0469V25.1719H27V25.125H26.9531C26.9531 25.1133 26.9531 25.086 26.9531 25.043V25.0312H26.9062V24.9375H26.8594V24.8906H26.8125V24.8438H26.7656V24.75H26.7187V24.7031H26.6719V24.6562H26.625V24.6094H26.5781V24.5156H26.5312V24.4688H26.4844V24.4219H26.4375V24.3281H26.3906V24.2812H26.3437V24.1875H26.2969V24.1406H26.25V24.0938H26.2031V24.0469H26.1562V24H26.1094V23.9062H26.0625V23.8594H26.0156V23.8125H25.9687V23.8008V23.6836V23.6719H25.9219V23.625H25.875V23.5781H25.8281V23.5312H25.7812V23.4844H25.7344V23.4375H25.6875V23.3906H25.6406C25.6406 23.3789 25.6406 23.3516 25.6406 23.3086V23.2969H25.5937V23.2031H25.5469V23.1562H25.5V23.1094H25.4531V23.0625H25.4062V23.0156H25.3594V22.9688H25.3125V22.9219H25.2656V22.8281H25.2187V22.7812H25.1719V22.6875H25.0781V22.5938H25.0312V22.5469H24.9844V22.5H24.9375V22.4531H24.8906V22.4062H24.8437V22.3594H24.7969V22.3125H24.75V22.2188H24.7031V22.1719H24.6562V22.125H24.6094V22.0781H24.5625V21.9844H24.5156V21.9375H24.4687V21.8906H24.4219V21.8438H24.375V21.75H24.3281V21.7031H24.2812V21.6562H24.2344V21.6094H24.1875V21.5625H24.1406V21.5156H24.0937V21.4219H24.0469V21.375H24V21.3281H23.9531V21.2812H23.9062V21.2344H23.8594V21.1875H23.8125V21.1406H23.7656V21.0938H23.7187V21.0469H23.6719V20.9531H23.625V20.9062H23.5781V20.8594H23.5312V20.8125H23.4844V20.7656H23.4375V20.6719H23.3906V20.625H23.2969V20.5781H23.25V20.4844H23.2031V20.4375H23.1562V20.3906H23.1094V20.3438H23.0625V20.25H22.9687V20.2031H22.9219V20.1562H22.875V20.1094H22.8281V20.0625H22.7812V20.0156H22.7344V19.9688H22.6875V19.875H22.6406V19.8281H22.5469V19.7812H22.5V19.6875H22.4531V19.6406H22.4062V19.5938H22.3594V19.5469H22.3125V19.5H22.2656V19.4531H22.2187V19.4062H22.1719V19.3594H22.125V19.3125H22.0781V19.2656H22.0312V19.2188H21.9844V19.1719H21.9375V19.125H21.8906V19.0781H21.8437V18.9844H21.7969V18.9375H21.75V18.8906H21.7031V18.8438H21.6562V18.7969H21.6094V18.75H21.5625V18.7031H21.5156V18.6562H21.4687V18.6094H21.4219V18.5625H21.375V18.5156H21.2812V18.4688H21.2344V18.4219H21.1875V18.375H21.1406V18.2812H21.0469V18.2344H21V18.1875H20.9531V18.1406H20.9062V18.0938H20.8594V18.0469H20.8125V18H20.7656V17.9531H20.7187V17.9062H20.6719V17.8594H20.5781V17.8125H20.5312V17.7656H20.4844V17.7188H20.4375V17.6719H20.3906V17.625H20.3437V17.5781H20.2969V17.5312H20.25V17.4844H20.2031V17.4375H20.1562V17.3906H20.1094V17.3438H20.0625V17.2969H20.0156V17.25H19.9687V17.2031H19.9219V17.1562H19.875V17.1094H19.7812V17.0625H19.7344V17.0156H19.6875V16.9688H19.5937V16.9219H19.5469V16.875H19.5V16.8281H19.4531V16.7812H19.4062V16.7344H19.3594V16.6875H19.3125V16.6406H19.2656V16.5938H19.1719V16.5469H19.125V16.5H19.0781V16.4531H19.0312V16.4062H18.9844V16.3594H18.8906V16.3125H18.8437V16.2656H18.7969V16.2188H18.75V16.1719H18.7031V16.125H18.6094V16.0781H18.5625V16.0312H18.5156V15.9844H18.4219V15.9375H18.375V15.8906H18.3281V15.8438H18.2812V15.7969H18.2344V15.75H18.1406V15.7031H18.0937V15.6562H18.0469V15.6094H18V15.5625H17.9531V15.5156H17.8594V15.4688H17.8125V15.4219H17.7656V15.375H17.7187V15.3281H17.6719V15.2812H17.625V15.2344C17.6133 15.2344 17.586 15.2344 17.543 15.2344H17.5312V15.1875H17.4375V15.1406H17.3906V15.0938H17.3437V15.0469H17.25V15H17.2031V14.9531H17.1094V14.9062H17.0625V14.8594H17.0156V14.8125H16.9687V14.7656H16.875V14.7188H16.8281V14.6719H16.7344V14.625H16.6875V14.5781H16.6406V14.5312H16.5937V14.4844H16.5469V14.4375H16.4531V14.3906C16.4414 14.3906 16.4141 14.3906 16.3711 14.3906H16.3594V14.3438H16.2656V14.2969H16.2187V14.25H16.1719V14.2031H16.0781V14.1562H16.0312V14.1094H15.9844V14.0625H15.9375V14.0156C15.9258 14.0156 15.8985 14.0156 15.8555 14.0156H15.8437V13.9688H15.75V13.9219H15.7031V13.875H15.6094V13.8281H15.5625V13.7812H15.4687V13.7344H15.4219V13.6875H15.375V13.6406H15.3281V13.5938C15.3164 13.5938 15.2891 13.5938 15.2461 13.5938H15.2344V13.5469H15.1406V13.5H15.0937V13.4531H15V13.4062H14.9531V13.3594H14.9062V13.3125H14.8125V13.2656H14.7656V13.2188H14.6719V13.1719H14.625V13.125C14.6133 13.125 14.586 13.125 14.543 13.125H14.5312V13.0781H14.4375V13.0312H14.3906V12.9844H14.3437V12.9375H14.2969V12.8906C14.2852 12.8906 14.2578 12.8906 14.2148 12.8906H14.2031V12.8438H14.1094V12.7969H14.0625V12.75H13.9687V12.7031H13.9219V12.6562H13.8281V12.6094H13.7344V12.5625C13.7227 12.5625 13.6953 12.5625 13.6523 12.5625H13.6406V12.5156H13.5469V12.4688H13.5V12.4219H13.4062V12.375H13.3594V12.3281C13.3477 12.3281 13.3203 12.3281 13.2773 12.3281H13.2656V12.2812H13.1719V12.2344H13.125V12.1875H13.0312V12.1406H12.9375V12.0938H12.8437V12.0469H12.75V12H12.6562V11.9531H12.5625V11.9062H12.4687V11.8594C12.457 11.8594 12.4297 11.8594 12.3867 11.8594H12.375V11.8125H12.2812V11.7656H12.1875V11.7188H12.1406V11.6719H12.1289H12.0117H12V11.625H11.9062V11.5781H11.8125V11.5312H11.8008H11.6836H11.6719V11.4844H11.6602H11.4961H11.4844V11.4961V11.6602V11.6719H11.4375V11.6836V11.8945V11.9062H11.4844V11.918V12.1758V12.1875H11.5312V12.1992V12.4102V12.4219H11.5781V12.4336V12.5508V12.5625H11.625V12.5742V12.6914V12.7031H11.6719V12.7148V12.832V12.8438H11.7187V12.9375H11.7656V12.9492V13.0664V13.0781H11.8125V13.0898V13.2539V13.2656H11.8594V13.3594H11.9062V13.4531H11.9531V13.5469H12C12 13.5586 12 13.5859 12 13.6289V13.6406H12.0469V13.7344H12.0937V13.7461V13.8633V13.875H12.1406V13.9688H12.1875V14.0625H12.2344V14.1562H12.2812V14.25H12.3281V14.3438H12.375V14.4375H12.4219V14.5312H12.4687V14.625H12.5156V14.7188H12.5625V14.8125H12.6094C12.6094 14.8242 12.6094 14.8515 12.6094 14.8945V14.9062H12.6562V15H12.7031V15.0117V15.1289V15.1406H12.75V15.2344H12.7969V15.3281H12.8437V15.4219H12.8906V15.5156H12.9375V15.5273V15.6445V15.6562H12.9844V15.7031H13.0312V15.7969H13.0781V15.8906H13.125V15.9844H13.1719V16.0781H13.2187V16.1719H13.2656V16.2656H13.3125V16.3594H13.3594V16.4531H13.4062V16.5469H13.4531V16.6406H13.5V16.7344H13.5469V16.8281H13.5937V16.8398V16.957V16.9688H13.6406V17.0156H13.6875V17.1094H13.7344V17.2031H13.7812V17.2148V17.332V17.3438H13.8281V17.4375H13.875V17.4844H13.9219V17.5781H13.9687V17.5898V17.707V17.7188H14.0156V17.8125H14.0625V17.9062H14.1094V18H14.1562V18.0938H14.2031V18.1875H14.25V18.2812H14.2969V18.375H14.3437V18.4688H14.3906V18.5625H14.4375V18.6562H14.4844V18.75H14.5312V18.8438H14.5781V18.9375H14.625V19.0312H14.6719V19.125H14.7187V19.2188H14.7656V19.3125H14.8125V19.4062H14.8594V19.5H14.9062V19.5938H14.9531V19.6875H15V19.7812H15.0469V19.875H15.0937V19.8867V20.0039V20.0156H15.1406V20.1094H15.1875V20.1562H15.2344V20.25H15.2812V20.2617V20.3789V20.3906H15.3281V20.4844H15.375V20.5312H15.4219V20.625H15.4687V20.6367V20.7539V20.7656H15.5156V20.8594H15.5625V20.9531H15.6094V21.0469H15.6562V21.1406H15.7031V21.2344H15.75V21.3281H15.7969V21.4219H15.8437V21.5156H15.8906V21.6094H15.9375V21.7031H15.9844V21.7148V21.832V21.8438H16.0312V21.8906H16.0781V21.9844H16.125V21.9961V22.1133V22.125H16.1719V22.2188H16.2187V22.3125H16.2656V22.4062H16.3125V22.5H16.3594V22.5938H16.4062V22.6055V22.7227V22.7344H16.4531V22.8281H16.5V22.875H16.5469V22.8867V23.0039V23.0156H16.5937V23.1094H16.6406V23.2031H16.6875V23.2969H16.7344V23.3906H16.7812V23.4844H16.8281V23.5781H16.875V23.5898V23.707V23.7188H16.9219V23.8125H16.9687V23.8594H17.0156V23.9531H17.0625V23.9648V24.082V24.0938H17.1094V24.1875H17.1562V24.2812H17.2031V24.293V24.4102V24.4219H17.25V24.5156H17.2969V24.6094H17.3437V24.7031H17.3906V24.7969H17.4375V24.8906H17.4844V24.9023V25.0195V25.0312H17.5312V25.125H17.5781V25.1367V25.2539V25.2656H17.625V25.3594H17.6719V25.4062H17.7187V25.5H17.7656V25.5938H17.8125V25.6055V25.7227V25.7344H17.8594V25.8281H17.9062V25.9219H17.9531V26.0156H18V26.1094H18.0469V26.1211V26.2383V26.25H18.0937V26.3438H18.1406V26.4375H18.1875V26.5312H18.2344V26.543V26.6602V26.6719H18.2812V26.6836V26.8008V26.8125H18.3281V26.9062H18.375V27H18.4219V27.0117V27.1289V27.1406H18.4687V27.2344H18.5156V27.3281H18.5625V27.4219H18.6094V27.4336V27.5508V27.5625H18.6562V27.6562H18.7031V27.75H18.75V27.8438H18.7969V27.9375H18.8437V27.9492V28.0664V28.0781H18.8906V28.0898V28.207V28.2188H18.9375V28.3125H18.9844V28.4062H19.0312V28.5H19.0781V28.5117V28.6289V28.6406H19.125V28.7344H19.1719V28.7461V28.8633V28.875H19.2187V28.9688H19.2656V28.9805V29.0977V29.1094H19.3125V29.1211V29.2383V29.25H19.3594V29.3438H19.4062V29.4375H19.4531V29.4492V29.5664V29.5781H19.5V29.5898V29.707V29.7188H19.5469V29.7305V29.8477V29.8594H19.5937V29.8711V29.9883V30H19.6406V30.0938H19.6875V30.1875H19.7344V30.2812H19.7812V30.293V30.4102V30.4219H19.8281V30.5156H19.875V30.5273V30.6445V30.6562H19.9219V30.668V30.7852V30.7969H19.9687V30.8086V30.9258V30.9375H20.0156V31.0312H20.0625V31.043V31.1602V31.1719H20.1094V31.1836V31.3008V31.3125H20.1562V31.3242V31.4414V31.4531H20.2031V31.4648V31.582V31.5938H20.25V31.6875H20.2969V31.6992V31.8164V31.8281H20.3437V31.8398V31.957V31.9688H20.3906V31.9805V32.0977V32.1094H20.4375V32.2031H20.4844V32.2148V32.332V32.3438H20.5312V32.3555V32.4727V32.4844H20.5781V32.4961V32.6133V32.625H20.625V32.6367V32.7539V32.7656H20.6719V32.7773V32.8945V32.9062H20.7187V32.918V33.0352V33.0469H20.7656V33.0586V33.1758V33.1875H20.8125V33.1992V33.3164V33.3281H20.8594V33.3398V33.457V33.4688H20.9062V33.4805V33.5977V33.6094H20.9531V33.6211V33.7852V33.7969H21V33.8086V33.9258V33.9375H21.0469V33.9492V34.0664V34.0781H21.0937V34.0898V34.207V34.2188H21.1406V34.2305V34.3477V34.3594H21.1875V34.3711V34.5352V34.5469H21.2344V34.5586V34.6758V34.6875H21.2812V34.6992V34.8633V34.875H21.3281V34.8867V35.0039V35.0156H21.375V35.0273V35.1445V35.1562H21.4219V35.168V35.332V35.3438H21.4687V35.3555V35.5195V35.5312H21.5156V35.543V35.707V35.7188H21.5625V35.7305V35.8477V35.8594H21.6094V35.8711V36.0352V36.0469H21.6562V36.0586V36.2227V36.2344H21.7031V36.2461V36.3633V36.375H21.75V36.3867V36.5039V36.5156H21.7969V36.5273V36.7383V36.75H21.8437V36.7617V36.9727V36.9844H21.8906V36.9961V37.207V37.2188H21.9375V37.2305V37.3477V37.3594H21.9844V37.3711V37.5352V37.5469H22.0312V37.5586V37.7227V37.7344H22.0781V37.7461V37.957V37.9688H22.125V37.9805V38.1914V38.2031H22.1719V38.2148V38.4727V38.4844H22.2187V38.4961V38.6602V38.6719H22.2656V38.6836V38.8945V38.9062H22.3125V38.918V39.1758V39.1875H22.3594V39.1992V39.5039V39.5156H22.4062V39.5273V39.7852V39.7969H22.4531V39.8086V40.0195V40.0312H22.5V40.043V40.3477V40.3594H22.5469V40.3711V40.7227V40.7344H22.5937V40.7461V41.0977V41.1094H22.6406V41.1211V41.5195V41.5312H22.6875V41.543V41.9883V42H22.7344V42.0117V42.5508V42.5625H22.7812V42.6562H22.7344V42.7031H22.7812V42.7148V43.9102V43.9219H22.8281V43.9688H22.7812V44.0156H22.8281V44.0273V44.5195V44.5312H22.7812V44.625H22.8281V44.7188H22.7812V44.7305V45.7383V45.75H22.7344V45.7617V46.2539V46.2656H22.6875V46.2773V46.6289V46.6406H22.6406V46.6523V47.0508V47.0625H22.5937V47.0742V47.332V47.3438H22.5469V47.3555V47.6133V47.625H22.5V47.6367V47.8945V47.9062H22.4531V47.918V48.1289V48.1406H22.4062V48.1523V48.3164V48.3281H22.3594V48.3398V48.5508V48.5625H22.3125V48.5742V48.832V48.8438H22.2656V48.8555V49.0195V49.0312H22.2187V49.043V49.1602V49.1719H22.1719V49.1836V49.3477V49.3594H22.125V49.3711V49.5352V49.5469H22.0781V49.5586V49.6758V49.6875H22.0312V49.7812H21.9844V49.793V49.957V49.9688H21.9375V49.9805V50.0977V50.1094H21.8906V50.1211V50.2383V50.25H21.8437V50.2617V50.3789V50.3906H21.7969V50.4023V50.5195V50.5312H21.75V50.625H21.7031V50.7188H21.6562V50.7305V50.8477V50.8594H21.6094V50.8711V50.9883V51H21.5625V51.0938H21.5156V51.1055V51.2227V51.2344H21.4687V51.3281H21.4219V51.4219H21.375C21.375 51.4336 21.375 51.4608 21.375 51.5039V51.5156H21.3281V51.6094H21.2812V51.6562H21.2344V51.668V51.7852V51.7969H21.1875V51.8086V51.9258V51.9375H21.1406V52.0312H21.0937V52.0781H21.0469V52.1719H21V52.2656H20.9531V52.3594H20.9062V52.4531H20.8594C20.8594 52.4648 20.8594 52.492 20.8594 52.5352V52.5469H20.8125V52.6406H20.7656V52.6875H20.7187V52.7344H20.6719C20.6719 52.7461 20.6719 52.7733 20.6719 52.8164V52.8281H20.625V52.9219H20.5781V52.9688H20.5312V53.0156H20.4844V53.0625H20.4375V53.0742V53.1914V53.2031H20.3906V53.2969H20.3437V53.3438H20.2969V53.3906H20.25V53.4375H20.2031V53.4844H20.1562V53.5312H20.1094V53.625H20.0625V53.6719H20.0156V53.7188H19.9687V53.8125H19.9219V53.8594H19.875V53.9062H19.8281V53.9531H19.7812V54H19.7344V54.0469H19.6875V54.0938H19.6406V54.1875H19.5937V54.2344H19.5469V54.3281H19.5V54.375H19.4531V54.4219H19.4062V54.4688H19.3594V54.5156H19.3125V54.5625H19.2656V54.6094H19.1719V54.7031H19.0781V54.75H19.0312V54.8438H18.9375V54.8906H18.8906V54.9375H18.8437V54.9844H18.75V55.0312H18.7031V55.0781H18.6562V55.125H18.6094V55.1719H18.5625V55.2188H18.5156V55.2656H18.4219V55.3125H18.375V55.3594H18.3281V55.4062H18.2344V55.4531C18.2227 55.4531 18.1953 55.4531 18.1523 55.4531H18.1406V55.5H18.0469V55.5469H18V55.5938H17.9531V55.6406H17.8594V55.6875H17.8125V55.7344H17.7656V55.7812H17.6719V55.8281H17.625V55.875H17.6133H17.4961H17.4844V55.9219C17.4727 55.9219 17.4453 55.9219 17.4023 55.9219H17.3906V55.9688H17.2969V56.0156H17.25V56.0625H17.1562V56.1094H17.1445H17.0273H17.0156V56.1562H16.9219V56.2031H16.8281V56.25H16.8164H16.6992H16.6875V56.2969H16.5937V56.3438H16.582H16.4648H16.4531V56.3906H16.3594V56.4375H16.3477H16.1836H16.1719V56.4844H16.1602H16.043H16.0312V56.5312H16.0195H15.9023H15.8906V56.5781H15.8789H15.7148H15.7031V56.625H15.6914H15.4336H15.4219V56.6719H15.4102H15.1523H15.1406V56.7188H15.1289H14.7773H14.7656V56.7656H14.7539H13.4648H13.4531V56.7188H13.4414H12.9961H12.9844V56.6719H12.9727H12.668H12.6562V56.625H12.6445H12.3867H12.375V56.5781H12.3633H12.1523H12.1406V56.5312H12.1289H11.9648H11.9531V56.4844H11.9414H11.7773H11.7656V56.4375H11.7539H11.5898H11.5781V56.3906H11.5664H11.4492H11.4375V56.3438H11.4258H11.3086H11.2969V56.2969H11.2031V56.25H11.1094V56.2031H11.0977H10.9805H10.9687V56.1562H10.875V56.1094H10.7812V56.0625H10.7695H10.6523H10.6406V56.0156H10.5469V55.9688H10.4531V55.9219C10.4414 55.9219 10.4141 55.9219 10.3711 55.9219H10.3594V55.875H10.2656V55.8281H10.2187V55.7812H10.1719V55.7344H10.0781V55.6875H10.0312V55.6406H9.9375V55.5938H9.89062V55.5469H9.84375V55.5H9.75V55.4531H9.70312V55.4062H9.65625V55.3594H9.60937V55.3125H9.51562V55.2656H9.46875V55.1719H9.375V55.125H9.32812V55.0781H9.23437V55.0312H9.1875V54.9375H9.14062V54.8906H9.09375V54.8438H9.04687V54.7969H9V54.75H8.95312V54.7031H8.90625V54.6562H8.85937V54.5625H8.8125V54.5156H8.76562V54.4688H8.71875V54.4219H8.67187V54.3281H8.625V54.2812H8.57812V54.2344H8.53125V54.1406H8.48437V54.0938H8.4375V54.0469H8.39062V54H8.34375C8.34375 53.9883 8.34375 53.9611 8.34375 53.918V53.9062H8.29687V53.8125H8.25V53.7656H8.20312V53.6719H8.15625V53.625H8.10937V53.5312H8.0625V53.4375H8.01562V53.3438H7.96875V53.25H7.92187V53.2383V53.1211V53.1094H7.875V53.0156H7.82812V52.9219H7.78125V52.8281H7.73437V52.7344H7.6875V52.6406H7.64062V52.6289V52.5117V52.5H7.59375V52.4883V52.3711V52.3594H7.54687V52.2656H7.5V52.2539V52.1367V52.125H7.45312V52.0312H7.40625V52.0195V51.9023V51.8906H7.35937V51.8789V51.7617V51.75H7.3125V51.7383V51.6211V51.6094H7.26562V51.5977V51.4805V51.4688H7.21875V51.457V51.293V51.2812H7.17187V51.2695V51.1055V51.0938H7.125V51.082V50.918V50.9062H7.07812V50.8945V50.7773V50.7656H7.03125V50.7539V50.543V50.5312H6.98437V50.5195V50.3086V50.2969H6.9375V50.2852V50.0742V50.0625H6.89062V50.0508V49.6992V49.6875H6.84375V49.6758V49.5117V49.5H6.79687V49.4883V49.1367V49.125H6.75V49.1133V48.8086V48.7969H6.70312V48.7852V48.0586V48.0469H6.65625V48.0352V46.5586V46.5469H6.70312V46.5352V45.9023V45.8906H6.75V45.8789V45.5273V45.5156H6.79687V45.5039V45.2461V45.2344H6.84375V45.2227V44.9648V44.9531H6.89062V44.9414V44.7305V44.7188H6.9375V44.707V44.543V44.5312H6.98437V44.5195V44.3555V44.3438H7.03125V44.332V44.168V44.1562H7.07812V44.1445V43.9805V43.9688H7.125V43.957V43.8398V43.8281H7.17187V43.8164V43.6992V43.6875H7.21875V43.6758V43.5586V43.5469H7.26562V43.5352V43.418V43.4062H7.3125V43.3945V43.2773V43.2656H7.35937V43.1719H7.40625V43.0781H7.45312V43.0664V42.9492V42.9375H7.5V42.9258V42.8086V42.7969H7.54687C7.54687 42.7852 7.54687 42.7578 7.54687 42.7148V42.7031H7.59375V42.6094H7.64062V42.5625H7.6875V42.4688H7.73437V42.457V42.3398V42.3281H7.78125V42.2812H7.82812C7.82812 42.2695 7.82812 42.2422 7.82812 42.1992V42.1875H7.875V42.0938H7.92187V42.0469H7.96875V42H8.01562V41.9062H8.0625V41.8594H8.10937V41.8125H8.15625V41.8008V41.6836V41.6719H8.20312V41.625H8.25V41.5781H8.29687V41.4844H8.34375V41.4375H8.39062V41.3906H8.4375V41.3438H8.48437V41.2969H8.53125V41.25H8.57812V41.1562H8.625V41.1094H8.67187V41.0625H8.71875V41.0156H8.8125V40.9688H8.85937V40.9219H8.90625V40.875H8.95312V40.8281H9V40.7812H9.09375V40.7344H9.14062V40.6875H9.1875V40.6406C9.19922 40.6406 9.22655 40.6406 9.26953 40.6406H9.28125V40.5938H9.375V40.5469H9.42187V40.5C9.43359 40.5 9.46092 40.5 9.50391 40.5H9.51562V40.4531H9.60937V40.4062H9.65625V40.3594H9.66797H9.78516H9.79687V40.3125H9.80859H9.92578H9.9375V40.2656H9.94922H10.0664H10.0781V40.2188H10.0898H10.207H10.2187V40.1719H10.2305H10.3477H10.3594V40.125H10.3711H10.5352H10.5469V40.0781H10.5586H10.8633H10.875V40.0312H10.8867H11.9414H11.9531V40.0781H11.9648H12.3633H12.375V40.125H12.3867H12.6445H12.6562V40.1719H12.668H12.832H12.8437V40.2188H12.8555H12.9727H12.9844V40.2656H12.9961H13.1133H13.125V40.3125H13.2187V40.3594H13.2305H13.3477H13.3594V40.4062C13.3711 40.4062 13.3984 40.4062 13.4414 40.4062H13.4531V40.4531H13.5469V40.5H13.5937V40.5469C13.6055 40.5469 13.6328 40.5469 13.6758 40.5469H13.6875V40.5938H13.7812V40.6406H13.8281V40.6875H13.9219V40.7344H13.9687V40.7812H14.0156V40.8281H14.0625V40.875H14.1562V40.9219H14.2031V40.9688H14.25V41.0625H14.2969V41.1094H14.3437V41.1562H14.3906V41.2031H14.4375V41.25H14.4844V41.2969H14.5312V41.3906H14.5781V41.4375H14.625V41.4844H14.6719V41.5781H14.7187V41.625H14.7656V41.7188H14.8125V41.7656H14.8594C14.8594 41.7773 14.8594 41.8047 14.8594 41.8477V41.8594H14.9062V41.9531H14.9531V42H15V42.0117V42.1289V42.1406H15.0469V42.2344H15.0937V42.3281H15.1406V42.4219H15.1875V42.4336V42.5508V42.5625H15.2344V42.6562H15.2812V42.668V42.7852V42.7969H15.3281V42.8906H15.375V42.9023V43.0195V43.0312H15.4219V43.043V43.207V43.2188H15.4687V43.2305V43.3477V43.3594H15.5156V43.3711V43.5352V43.5469H15.5625V43.5586V43.7695V43.7812H15.6094V43.793V44.0039V44.0156H15.6562V44.0273V44.2383V44.25H15.7031V44.2617V44.6602V44.6719H15.75V44.6836V45.9727V45.9844H15.7031V45.9961V46.3477V46.3594H15.6562V46.3711V46.6289V46.6406H15.6094V46.6523V46.8164V46.8281H15.5625V46.8398V47.0039V47.0156H15.5156V47.0273V47.2383V47.25H15.4687V47.2617V47.3789V47.3906H15.4219V47.4844H15.375V47.4961V47.6133V47.625H15.3281V47.6367V47.7539V47.7656H15.2812V47.8125H15.2344V47.9062H15.1875V48H15.1406V48.0938H15.0937V48.1875H15.0469V48.2344H15V48.3281H14.9531V48.375H14.9062V48.4688H14.8594V48.5156H14.8125V48.5625H14.7656V48.6094H14.7187V48.6562H14.6719V48.7031H14.625V48.75H14.5781V48.7969H14.4844V48.8438H14.4375V48.8906H14.3906V48.9375H14.2969V48.9844H14.2031V49.0312H14.1094V49.0781H14.0977H13.9805H13.9687V49.125H13.957H13.8398H13.8281V49.1719H13.8164H13.6523H13.6406V49.2188H13.6289H13.1836H13.1719V49.1719H13.1602H12.9023H12.8906V49.125H12.8789H12.7148H12.7031V49.0781H12.6914H12.5742H12.5625V49.0312H12.4687V48.9844H12.375V48.9375C12.3633 48.9375 12.336 48.9375 12.293 48.9375H12.2812V48.8906H12.1875V48.8438H12.1406V48.7969H12.0469V48.75H12V48.7031H11.9531V48.6562H11.9062V48.5625H11.8594V48.5508V48.4336V48.4219H11.9062V48.375H11.918H12.5039H12.5156V48.4219C12.5273 48.4219 12.5547 48.4219 12.5977 48.4219H12.6094V48.4688H12.7031V48.5156H12.75V48.5625H12.7969V48.6094H12.8437V48.6562H12.8906V48.7031C12.9023 48.7031 12.9297 48.7031 12.9727 48.7031H12.9844V48.75H13.0781V48.7969H13.125V48.8438H13.1367H13.2539H13.2656V48.7969H13.3594V48.75H13.4062V48.7031H13.4531V48.6562H13.5469V48.5625H13.5937V48.5156H13.6406V48.4688H13.6875V48.4219H13.7344V48.3281H13.7812V48.2812H13.8281V48.1875H13.875V48.1406H13.9219V48.1289V48.0117V48H13.9687V47.9062H14.0156V47.8125H14.0625V47.8008V47.6836V47.6719H14.1094V47.6602V47.543V47.5312H14.1562V47.5195V47.4023V47.3906H14.2031V47.3789V47.168V47.1562H14.25V47.1445V46.9805V46.9688H14.2969V46.957V46.7461V46.7344H14.3437V46.7227V46.2305V46.2188H14.3906V46.207V45.293V45.2812H14.3437V45.2695V44.7305V44.7188H14.2969V44.707V44.4492V44.4375H14.25V44.4258V44.168V44.1562H14.2031V44.1445V43.8867V43.875H14.1562V43.8633V43.7461V43.7344H14.1094V43.7227V43.6055V43.5938H14.0625V43.582V43.418V43.4062H14.0156V43.3125H13.9687V43.3008V43.1836V43.1719H13.9219V43.1602V43.043V43.0312H13.875V43.0195V42.9023V42.8906H13.8281V42.7969H13.7812V42.7852V42.668V42.6562H13.7344V42.5625H13.6875V42.4688H13.6406V42.375H13.5937C13.5937 42.3633 13.5937 42.336 13.5937 42.293V42.2812H13.5469V42.1875H13.5V42.1406H13.4531C13.4531 42.1289 13.4531 42.1016 13.4531 42.0586V42.0469H13.4062V41.9531H13.3594V41.9062H13.3125V41.8125H13.2656V41.7656H13.2187V41.6719H13.1719V41.625H13.125V41.5781H13.0781V41.4844H13.0312V41.4375H12.9844V41.3906H12.9375V41.3438H12.8906V41.2969H12.8437V41.25H12.7969V41.2031H12.75V41.1562H12.7031V41.1094H12.6562V41.0625H12.5625V41.0156H12.5156V40.9688H12.4687V40.9219H12.4219V40.875H12.3281V40.8281H12.2812V40.7812H12.1875V40.7344H12.1406V40.6875H12.0469V40.6406H12.0352H11.918H11.9062V40.5938H11.8945H11.7773H11.7656V40.5469H11.6719V40.5938H11.6602H11.4961H11.4844V40.6406H11.4727H11.3555H11.3437V40.6875H11.2969V40.7344H11.2031V40.7812H11.1094V40.8281C11.0977 40.8281 11.0703 40.8281 11.0273 40.8281H11.0156V40.875H10.9219V40.9219H10.875V40.9688H10.7812V41.0156H10.7344V41.0625H10.6406V41.1094H10.5937V41.1562H10.5469V41.2031H10.5V41.25H10.4531V41.2969H10.4062V41.3438H10.3594V41.3906H10.3125V41.4375H10.2656V41.4844H10.2187V41.5312H10.1719V41.5781H10.125V41.625H10.0781V41.7188H10.0312V41.7656H9.98437V41.8125H9.9375V41.8594H9.89062V41.9531H9.84375V42H9.79687V42.0469H9.75V42.0938H9.70312V42.1055V42.2227V42.2344H9.65625V42.3281H9.60937C9.60937 42.3398 9.60937 42.3672 9.60937 42.4102V42.4219H9.5625V42.5156H9.51562V42.5625H9.46875V42.6562H9.42187V42.75H9.375V42.7617V42.8789V42.8906H9.32812V42.9844H9.28125V43.0781H9.23437V43.1719H9.1875V43.1836V43.3008V43.3125H9.14062V43.4062H9.09375V43.418V43.5352V43.5469H9.04687V43.5586V43.7227V43.7344H9V43.7461V43.8633V43.875H8.95312V43.8867V44.0508V44.0625H8.90625V44.0742V44.1914V44.2031H8.85937V44.2148V44.3789V44.3906H8.8125V44.4023V44.5664V44.5781H8.76562V44.5898V44.8008V44.8125H8.71875V44.8242V45.1289V45.1406H8.67187V45.1523V45.3633V45.375H8.625V45.3867V45.6914V45.7031H8.57812V45.7148V46.3477V46.3594H8.53125V46.3711V47.8477V47.8594H8.57812V47.9531H8.53125V47.9648V48.082V48.0938H8.57812V48.1055V48.5977V48.6094H8.625V48.6211V49.0195V49.0312H8.67187V49.043V49.3008V49.3125H8.71875V49.3242V49.582V49.5938H8.76562V49.6055V49.8633V49.875H8.8125V49.8867V50.0508V50.0625H8.85937V50.0742V50.2852V50.2969H8.90625V50.3086V50.5195V50.5312H8.95312V50.543V50.707V50.7188H9V50.7305V50.8945V50.9062H9.04687V50.918V51.082V51.0938H9.09375V51.1055V51.2695V51.2812H9.14062V51.375H9.1875V51.3867V51.5508V51.5625H9.23437V51.5742V51.6914V51.7031H9.28125V51.7969H9.32812V51.8086V51.9258V51.9375H9.375V51.9492V52.0664V52.0781H9.42187V52.1719H9.46875V52.1836V52.3008V52.3125H9.51562V52.4062H9.5625V52.5H9.60937V52.5938H9.65625V52.6055V52.7695V52.7812H9.70312V52.875H9.75V52.9219H9.79687V53.0156H9.84375V53.1094H9.89062V53.1562H9.9375V53.25H9.98437V53.2969H10.0312V53.3906H10.0781C10.0781 53.4023 10.0781 53.4295 10.0781 53.4727V53.4844H10.125V53.5781H10.1719V53.625H10.2187V53.7188H10.2656V53.7656H10.3125V53.8594H10.3594V53.9062H10.4062V54H10.4531V54.0469H10.5V54.1406H10.5469V54.1875H10.5937V54.2344H10.6406V54.2812H10.6875V54.3281H10.7344V54.4219H10.7812V54.4688H10.8281V54.5156H10.875V54.5625H10.9219V54.6094H10.9687V54.6562H11.0156V54.7031H11.0625V54.75H11.1094V54.7969H11.1562V54.8438H11.2031V54.8906H11.25V54.9375H11.2969V54.9844H11.3437V55.0312H11.3906V55.0781H11.4375V55.125H11.5312V55.1719H11.5781V55.2188H11.625V55.2656H11.7187V55.3125H11.7656V55.3594H11.8125V55.4062H11.9062V55.4531H11.9531V55.5H12.0469V55.5469H12.1406V55.5938C12.1523 55.5938 12.1797 55.5938 12.2227 55.5938H12.2344V55.6406H12.3281V55.6875H12.375V55.7344H12.4687V55.7812C12.4805 55.7812 12.5078 55.7812 12.5508 55.7812H12.5625V55.8281H12.6562V55.875H12.7031V55.9219H12.7148H12.832H12.8437V55.9688H12.8555H13.0195H13.0312V56.0156H13.043H13.1602H13.1719V56.0625H13.1836H13.3008H13.3125V56.1094H13.3242H13.4883H13.5V56.1562H13.5117H13.8164H13.8281V56.1094H13.8398H14.0039H14.0156V56.0625H14.0273H14.2383H14.25V56.0156H14.2617H14.4258H14.4375V55.9688H14.4492H14.5664H14.5781V55.9219H14.5898H14.707H14.7187V55.875H14.7305H14.8945H14.9062V55.8281H15V55.7812H15.0117H15.1289H15.1406V55.7344H15.1875V55.6875H15.2812V55.6406H15.375V55.5938C15.3867 55.5938 15.414 55.5938 15.457 55.5938H15.4687V55.5469H15.5625V55.5H15.6094V55.4531H15.7031V55.4062H15.75V55.3594H15.8437V55.3125H15.8555H15.9727H15.9844V55.2656H16.0781V55.2188H16.125V55.1719H16.1719V55.125H16.2656V55.0781H16.3125V55.0312H16.3594V54.9844H16.4062V54.9375H16.4531V54.8906H16.5469V54.8438H16.5937V54.7969H16.6875V54.75H16.7344V54.7031H16.8281V54.6094H16.875V54.5625H16.9687V54.5156H17.0156V54.4688H17.0625V54.4219H17.1094V54.375H17.1562V54.3281H17.2031V54.2812H17.25V54.2344H17.2969V54.1875H17.3437V54.1406H17.3906V54.0938H17.4375V54.0469H17.4844V54H17.5312V53.9531H17.5781V53.9062H17.625V53.8594H17.6719V53.8125H17.7187V53.7656H17.7656V53.7188H17.8125V53.6719H17.8594V53.5781H17.9062V53.5312H17.9531V53.4844H18V53.4375H18.0469V53.3438H18.0937V53.2969H18.1406V53.25H18.1875V53.1562H18.2344V53.1094H18.2812V53.0156H18.3281V52.9688H18.375V52.9219H18.4219V52.875H18.4687V52.7812H18.5156V52.7344H18.5625V52.7227V52.6055V52.5938H18.6094V52.5469H18.6562C18.6562 52.5352 18.6562 52.508 18.6562 52.4648V52.4531H18.7031V52.3594H18.75V52.3125H18.7969V52.2188H18.8437V52.1719H18.8906C18.8906 52.1602 18.8906 52.133 18.8906 52.0898V52.0781H18.9375V51.9844H18.9844V51.9375H19.0312V51.8438H19.0781V51.75H19.125V51.6562H19.1719V51.5625H19.2187V51.4688H19.2656V51.375H19.3125V51.2812H19.3594V51.2695V51.1523V51.1406H19.4062V51.0469H19.4531V50.9531H19.5V50.8594H19.5469V50.8477V50.7305V50.7188H19.5937V50.625H19.6406V50.6133V50.4961V50.4844H19.6875V50.4727V50.3555V50.3438H19.7344V50.25H19.7812V50.2383V50.1211V50.1094H19.8281V50.0977V49.9336V49.9219H19.875V49.8281H19.9219V49.8164V49.6992V49.6875H19.9687V49.6758V49.5586V49.5469H20.0156V49.5352V49.3711V49.3594H20.0625V49.3477V49.1836V49.1719H20.1094V49.1602V49.043V49.0312H20.1562V49.0195V48.9023V48.8906H20.2031V48.8789V48.7148V48.7031H20.25V48.6914V48.4805V48.4688H20.2969V48.457V48.293V48.2812H20.3437V48.2695V48.1055V48.0938H20.3906V48.082V47.8711V47.8594H20.4375V47.8477V47.5898V47.5781H20.4844V47.5664V47.3086V47.2969H20.5312V47.2852V47.0273V47.0156H20.5781V47.0039V46.6523V46.6406H20.625V46.6289V46.2305V46.2188H20.6719V46.207V45.7617V45.75H20.7187V45.7383V44.8711V44.8594H20.7656V44.8477V43.1836V43.1719H20.7187V43.1602V42.293V42.2812H20.6719V42.2695V41.6836V41.6719H20.625V41.6602V41.2617V41.25H20.5781V41.2383V40.8867V40.875H20.5312V40.8633V40.4648V40.4531H20.4844V40.4414V40.1367V40.125H20.4375V40.1133V39.8086V39.7969H20.3906V39.7852V39.5273V39.5156H20.3437V39.5039V39.2461V39.2344H20.2969V39.2227V39.0117V39H20.25V38.9883V38.7773V38.7656H20.2031V38.7539V38.4961V38.4844H20.1562V38.4727V38.3086V38.2969H20.1094V38.2852V38.0273V38.0156H20.0625V38.0039V37.8398V37.8281H20.0156V37.8164V37.6055V37.5938H19.9687V37.582V37.418V37.4062H19.9219V37.3945V37.1836V37.1719H19.875V37.1602V36.9961V36.9844H19.8281V36.9727V36.8086V36.7969H19.7812V36.7852V36.668V36.6562H19.7344V36.6445V36.4805V36.4688H19.6875V36.457V36.1992V36.1875H19.6406V36.1758V36.0586V36.0469H19.5937V36.0352V35.8711V35.8594H19.5469V35.8477V35.6836V35.6719H19.5V35.6602V35.543V35.5312H19.4531V35.5195V35.4023V35.3906H19.4062V35.3789V35.2148V35.2031H19.3594V35.1914V35.0273V35.0156H19.3125V35.0039V34.8867V34.875H19.2656V34.8633V34.7461V34.7344H19.2187V34.7227V34.5586V34.5469H19.1719V34.5352V34.3711V34.3594H19.125V34.2656H19.0781V34.2539V34.0898V34.0781H19.0312V34.0664V33.9492V33.9375H18.9844V33.9258V33.7617V33.75H18.9375V33.7383V33.6211V33.6094H18.8906V33.5156H18.8437V33.5039V33.3867V33.375H18.7969V33.3633V33.1992V33.1875H18.75V33.1758V33.0586V33.0469H18.7031V33.0352V32.918V32.9062H18.6562V32.8945V32.7773V32.7656H18.6094V32.7539V32.6367V32.625H18.5625V32.6133V32.4961V32.4844H18.5156V32.3906H18.4687V32.3789V32.2148V32.2031H18.4219V32.1914V32.0273V32.0156H18.375V31.9219H18.3281V31.8281H18.2812V31.8164V31.6992V31.6875H18.2344V31.6758V31.5586V31.5469H18.1875V31.5352V31.418V31.4062H18.1406V31.3945V31.2773V31.2656H18.0937V31.2539V31.1367V31.125H18.0469V31.0312H18V31.0195V30.9023V30.8906H17.9531V30.7969H17.9062V30.7852V30.668V30.6562H17.8594V30.5625H17.8125V30.5508V30.3867V30.375H17.7656V30.2812H17.7187V30.2695V30.1523V30.1406H17.6719V30.1289V30.0117V30H17.625V29.9062H17.5781V29.8125H17.5312V29.8008V29.6836V29.6719H17.4844V29.5781H17.4375V29.5664V29.4492V29.4375H17.3906V29.3438H17.3437V29.332V29.2148V29.2031H17.2969V29.1094H17.25V29.0156H17.2031V29.0039V28.8867V28.875H17.1562V28.7812H17.1094V28.7695V28.6523V28.6406H17.0625V28.6289V28.5117V28.5H17.0156V28.4062H16.9687V28.3945V28.2773V28.2656H16.9219V28.1719H16.875V28.0781H16.8281V27.9844H16.7812V27.9727V27.8555V27.8438H16.7344V27.832V27.7148V27.7031H16.6875V27.6094H16.6406V27.5156H16.5937V27.4219H16.5469V27.4102V27.293V27.2812H16.5V27.1875H16.4531V27.0938H16.4062V27.082V26.9648V26.9531H16.3594V26.8594H16.3125V26.7656H16.2656V26.6719H16.2187V26.5781H16.1719V26.5664V26.4492V26.4375H16.125V26.3438H16.0781V26.25H16.0312V26.1562H15.9844V26.1445V26.0273V26.0156H15.9375V25.9219H15.8906V25.8281H15.8437V25.7344H15.7969V25.7227V25.6055V25.5938H15.75V25.5469H15.7031V25.5352V25.3711V25.3594H15.6562V25.3125H15.6094V25.3008V25.1367V25.125H15.5625V25.0781H15.5156V24.9844H15.4687V24.8906H15.4219V24.7969H15.375V24.7852V24.668V24.6562H15.3281V24.6445V24.5273V24.5156H15.2812V24.4688H15.2344V24.375H15.1875V24.2812H15.1406V24.1875H15.0937V24.0938H15.0469V24H15V23.9883V23.8242V23.8125H14.9531V23.7188H14.9062V23.6719H14.8594V23.5781H14.8125V23.4844H14.7656V23.3906H14.7187V23.2969H14.6719V23.2031H14.625V23.1094H14.5781V23.0977V22.9336V22.9219H14.5312V22.875H14.4844V22.7812H14.4375V22.6875H14.3906V22.6758V22.5586V22.5469H14.3437V22.4531H14.2969V22.4062H14.25V22.3945V22.2773V22.2656H14.2031C14.2031 22.2539 14.2031 22.2266 14.2031 22.1836V22.1719H14.1562V22.0781H14.1094V22.0312H14.0625V21.9375H14.0156V21.8438H13.9687V21.75H13.9219V21.7383V21.6211V21.6094H13.875V21.5156H13.8281V21.4219H13.7812V21.3281H13.7344V21.2344H13.6875V21.2227V21.1055V21.0938H13.6406V21H13.5937V20.9531H13.5469V20.8594H13.5V20.7656H13.4531V20.7539V20.5898V20.5781H13.4062V20.4844H13.3594V20.4375H13.3125V20.3438H13.2656V20.25H13.2187V20.1562H13.1719V20.0625H13.125V19.9688H13.0781V19.875H13.0312V19.7812H12.9844V19.6875H12.9375V19.5938H12.8906V19.5H12.8437V19.4062H12.7969V19.3125H12.75V19.2188H12.7031V19.207V19.0898V19.0781H12.6562V19.0312H12.6094V19.0195V18.9023V18.8906H12.5625V18.8438H12.5156V18.75H12.4687V18.7383V18.6211V18.6094H12.4219V18.5156H12.375V18.5039V18.3867V18.375H12.3281V18.3281H12.2812V18.2812H12.2344V18.1875H12.1875V18.0938H12.1406V18.082V17.9648V17.9531H12.0937V17.8594H12.0469V17.8125H12V17.7188H11.9531V17.625H11.9062V17.5312H11.8594V17.5195V17.4023V17.3906H11.8125V17.3438H11.7656V17.25H11.7187V17.1562H11.6719V17.0625H11.625V16.9688H11.5781V16.875H11.5312V16.7812H11.4844V16.6875H11.4375V16.6758V16.5586V16.5469H11.3906V16.5H11.3437V16.4062H11.2969V16.3125H11.25V16.2188H11.2031V16.125H11.1562V16.1133V15.9961V15.9844H11.1094V15.8906H11.0625C11.0625 15.8789 11.0625 15.8516 11.0625 15.8086V15.7969H11.0156V15.7031H10.9687V15.6562H10.9219V15.6445V15.5273V15.5156H10.875V15.4219H10.8281V15.3281H10.7812C10.7812 15.3164 10.7812 15.2891 10.7812 15.2461V15.2344H10.7344V15.1406H10.6875V15.0938H10.6406V15H10.5937V14.9883V14.8711V14.8594H10.5469V14.7656H10.5V14.6719H10.4531V14.5781H10.4062V14.4844H10.3594V14.4727V14.3555V14.3438H10.3125V14.25H10.2656V14.1562H10.2187V14.0625H10.1719V13.9688H10.125V13.957V13.8398V13.8281H10.0781V13.7344H10.0312V13.6406H9.98437V13.5469H9.9375V13.4531H9.89062V13.4414V13.3242V13.3125H9.84375V13.2188H9.79687V13.125H9.75V13.0312H9.70312V12.9375H9.65625V12.9258V12.7617V12.75H9.60937V12.6562H9.5625V12.6445V12.4805V12.4688H9.51562V12.457V12.3398V12.3281H9.46875V12.3164V12.1523V12.1406H9.42187V12.1289V11.4023V11.3906H9.46875V11.3789V11.2617V11.25H9.51562V11.2031H9.5625V11.1094H9.60937V11.0625H9.65625V11.0156H9.70312V10.9688H9.79687V10.9219H9.84375V10.875H9.9375V10.8281H10.0312V10.7812H10.043H10.207H10.2187V10.7344H10.2305H11.7539H11.7656V10.7812H11.7773H12.0352H12.0469V10.8281H12.0586H12.2695H12.2812V10.875H12.293H12.5039H12.5156V10.9219H12.5273H12.7383H12.75V10.9688H12.7617H12.8789H12.8906V11.0156H12.9023H13.0195H13.0312V11.0625H13.125V11.1094H13.1367H13.2539H13.2656V11.1562H13.2773H13.3945H13.4062V11.2031H13.5V11.25H13.5937V11.2969H13.6055H13.7227H13.7344V11.3438H13.8281V11.3906H13.9219V11.4375H14.0156V11.4844H14.0273H14.1445H14.1562V11.5312C14.168 11.5312 14.1953 11.5312 14.2383 11.5312H14.25V11.5781H14.3437V11.625H14.3906V11.6719H14.4844V11.7188H14.5781V11.7656H14.6719V11.8125C14.6836 11.8125 14.7109 11.8125 14.7539 11.8125H14.7656V11.8594H14.8594V11.9062H14.9062V11.9531H15V12H15.0469V12.0469H15.1406V12.0938H15.2344V12.1406H15.3281V12.1875C15.3398 12.1875 15.3672 12.1875 15.4102 12.1875H15.4219V12.2344H15.5156V12.2812H15.5625V12.3281H15.6562V12.375H15.7031V12.4219H15.75V12.4688H15.7969V12.5156H15.8906V12.5625H15.9375V12.6094H16.0312V12.6562H16.0781V12.7031H16.1719V12.75H16.2656V12.7969C16.2773 12.7969 16.3047 12.7969 16.3477 12.7969H16.3594V12.8438H16.4531V12.8906H16.5V12.9375H16.5469V12.9844H16.6406V13.0312H16.6875V13.0781H16.7812V13.125H16.8281V13.1719H16.9219V13.2188C16.9336 13.2188 16.9609 13.2188 17.0039 13.2188H17.0156V13.2656H17.1094V13.3125H17.1562V13.3594H17.2031V13.4062H17.25V13.4531H17.2617H17.3789H17.3906V13.5H17.4375V13.5469H17.5312V13.5938H17.5781V13.6406H17.625V13.6875H17.7187V13.7344H17.7656V13.7812H17.8125V13.8281H17.8594V13.875C17.8711 13.875 17.8984 13.875 17.9414 13.875H17.9531V13.9219H18.0469V13.9688H18.0937V14.0156H18.1406V14.0625C18.1523 14.0625 18.1797 14.0625 18.2227 14.0625H18.2344V14.1094H18.3281V14.1562H18.375V14.2031H18.4219V14.25H18.4687V14.2969H18.5625V14.3438H18.6094V14.3906C18.6211 14.3906 18.6484 14.3906 18.6914 14.3906H18.7031V14.4375H18.7969V14.4844H18.8437V14.5312H18.8906V14.5781H18.9375V14.625H19.0312V14.6719H19.0781V14.7188H19.1719V14.7656H19.2187V14.8125H19.2656V14.8594H19.3594V14.9062H19.4062V14.9531H19.4531V15H19.5469V15.0469H19.5937V15.0938H19.6406V15.1406H19.6875V15.1875H19.7812V15.2344H19.8281V15.2812H19.9219V15.3281H19.9687V15.375H20.0156V15.4219H20.1094V15.4688H20.1562V15.5156H20.2031V15.5625H20.2969V15.6094H20.3437V15.6562H20.3906V15.7031H20.4844V15.75H20.5312V15.7969H20.5781V15.8438H20.625V15.8906H20.6719V15.9375H20.7187V15.9844H20.8125V16.0312H20.8594V16.0781H20.9062V16.125H20.9531V16.1719H21V16.2188H21.0937V16.2656H21.1406V16.3125H21.1875V16.3594H21.2344V16.4062H21.2812V16.4531H21.3281V16.5H21.4219V16.5469H21.4687V16.5938H21.5156V16.6406H21.5625V16.6875H21.6094V16.7344H21.7031V16.7812H21.75V16.875H21.7969V16.9219H21.8437V16.9688H21.9375V17.0156H21.9844V17.0625H22.0312V17.1094H22.0781V17.1562H22.1719V17.2031H22.2187V17.2969H22.2656V17.3438H22.3125V17.3906H22.4062V17.4375H22.4531V17.4844H22.5V17.5312H22.5469V17.5781H22.5937V17.625H22.6406V17.6719H22.6875V17.7188H22.7344V17.7656H22.7812V17.8125H22.8281V17.8594H22.875V17.9062H22.9219V17.9531H22.9687V18H23.0156V18.0469H23.0625V18.0938H23.1094V18.1406H23.2031V18.1875H23.25V18.2344H23.2969V18.2812H23.3437V18.375H23.3906V18.4219H23.4375V18.4688H23.4844V18.5156H23.5312V18.5625H23.5781V18.6094H23.625V18.6562H23.6719V18.7031H23.7187V18.75H23.7656V18.7969H23.8125V18.8438H23.9062V18.8906H23.9531V18.9375H24V18.9844H24.0469V19.0312H24.0937V19.0781H24.1406V19.125H24.1875V19.2188H24.2344V19.2656H24.2812V19.3125H24.3281V19.3594H24.375V19.4062H24.4219V19.4531H24.4687V19.5H24.5156V19.5469H24.5625V19.5938H24.6094V19.6406H24.6562V19.6875H24.7031V19.7344H24.75V19.7812H24.7969V19.8281H24.8437V19.875H24.8906V19.9688H24.9375V20.0156H24.9844V20.0625H25.0312V20.1094H25.0781V20.1562H25.125V20.2031H25.1719V20.25H25.2187V20.2969H25.2656V20.3906H25.3594V20.4844H25.4062V20.5312H25.4531V20.5781H25.5V20.625H25.5469V20.6719H25.5937V20.7188H25.6406V20.7656H25.6875V20.8125H25.7344V20.8594H25.7812V20.9062H25.8281V20.9531H25.875V21.0469H25.9219V21.0938H25.9687V21.1406H26.0156V21.2344H26.0625V21.2812H26.1094V21.3281H26.1562V21.375H26.2031V21.4219H26.25V21.5156H26.3437V21.5625H26.3906V21.6562H26.4375V21.7031H26.4844V21.7969H26.5781V21.8438H26.625V21.8906H26.6719V21.9844H26.7187V22.0312H26.7656V22.0781H26.8125V22.125H26.8594V22.1719H26.9062V22.2656H26.9531V22.3125H27V22.3594H27.0469V22.4062H27.0937V22.5H27.1406V22.5469H27.1875V22.6406H27.2344V22.6875H27.2812V22.7344H27.3281V22.7812H27.375C27.375 22.793 27.375 22.8203 27.375 22.8633V22.875H27.4219V22.9688H27.4687V23.0156H27.5156V23.0625H27.5625V23.1094H27.6094V23.1562H27.6562V23.2031H27.7031V23.25H27.75V23.2969H27.7969C27.7969 23.3086 27.7969 23.3359 27.7969 23.3789V23.3906H27.8437V23.4844H27.8906V23.5312H27.9375V23.5781H27.9844V23.625H28.0312V23.6719H28.0781V23.7188H28.125V23.8125H28.1719V23.8594H28.2187V23.9531H28.2656V24H28.3125V24.0469H28.3594V24.0938H28.4062V24.1875H28.4531V24.2344H28.5V24.2812H28.5469V24.3281H28.5937V24.4219H28.6406V24.4688H28.6875V24.5625H28.7344V24.6094H28.7812V24.6562H28.8281V24.7031H28.875V24.7969H28.9219V24.8438H28.9687V24.8906H29.0156V24.9375H29.0625V25.0312H29.1094V25.043V25.1602V25.1719H29.1562V25.2188H29.25V25.2656H29.2969V25.2773V25.3945V25.4062H29.3437V25.4531H29.3906V25.5H29.4375V25.5469H29.4844V25.5938H29.5312V25.6875H29.5781V25.7344H29.625V25.7461V25.8633V25.875H29.6719V25.9688H29.7656V26.0625H29.8125V26.1094H29.8594V26.1562H29.9062C29.9062 26.168 29.9062 26.1953 29.9062 26.2383V26.25H29.9531V26.3438H30V26.3906H30.0469V26.4375H30.0937V26.4844H30.1406V26.5312H30.1875V26.5781H30.2344V26.6719H30.2812V26.7188H30.3281V26.8125H30.375C30.375 26.8242 30.375 26.8515 30.375 26.8945V26.9062H30.4219V27H30.4687V27.0469H30.5156V27.0938H30.5625V27.1406H30.6094V27.1875H30.6562V27.2812H30.7031V27.3281H30.75V27.4219H30.7969V27.4688H30.8437V27.5156H30.8906V27.6094H30.9375V27.6562H30.9844C30.9844 27.668 30.9844 27.6953 30.9844 27.7383V27.75H31.0312V27.8438H31.0781V27.8906H31.125V27.9375H31.1719C31.1719 27.9492 31.1719 27.9765 31.1719 28.0195V28.0312H31.2187V28.125H31.2656V28.1719H31.3125V28.2656H31.3594V28.3125H31.4062V28.3594H31.4531C31.4531 28.3711 31.4531 28.3984 31.4531 28.4414V28.4531H31.5V28.5469H31.5469V28.5938H31.5937V28.6406H31.6406V28.6875H31.6875V28.7812H31.7344V28.8281H31.7812V28.9219H31.8281V29.0156H31.875C31.875 29.0273 31.875 29.0547 31.875 29.0977V29.1094H31.9219V29.2031H31.9687V29.25H32.0156V29.2969H32.0625V29.3438H32.1094V29.4375H32.1562V29.4844H32.2031V29.5781H32.25V29.625H32.2969V29.6719H32.3437V29.7656H32.3906C32.3906 29.7773 32.3906 29.8047 32.3906 29.8477V29.8594H32.4375V29.9531H32.4844V30H32.5312V30.0938H32.5781V30.1406H32.625V30.2344H32.6719V30.2812H32.7187V30.375H32.7656V30.4219H32.8125V30.4688H32.8594C32.8594 30.4805 32.8594 30.5078 32.8594 30.5508V30.5625H32.9062V30.6562H32.9531V30.7031H33V30.75H33.0469C33.0469 30.7617 33.0469 30.789 33.0469 30.832V30.8438H33.0937V30.9375H33.1406V30.9844H33.1875V31.0781H33.2344V31.125H33.2812V31.2188H33.3281V31.2305V31.3477V31.3594H33.375V31.4062H33.4219V31.4531H33.4687V31.5H33.5156V31.5469H33.5625V31.6406H33.6094C33.6094 31.6523 33.6094 31.6797 33.6094 31.7227V31.7344H33.6562V31.8281H33.7031V31.875H33.75C33.75 31.8867 33.75 31.914 33.75 31.957V31.9688H33.7969V32.0625H33.8437V32.1094H33.8906V32.1562H33.9375V32.25H33.9844V32.2969H34.0312V32.3906H34.0781C34.0781 32.4023 34.0781 32.4297 34.0781 32.4727V32.4844H34.125V32.5781H34.1719V32.625H34.2187V32.6719H34.2656V32.7656H34.3125C34.3125 32.7773 34.3125 32.8047 34.3125 32.8477V32.8594H34.3594V32.9531H34.4062V33H34.4531V33.0469H34.5V33.1406H34.5469V33.1875H34.5937C34.5937 33.1992 34.5937 33.2265 34.5937 33.2695V33.2812H34.6406V33.375H34.6875V33.4219H34.7344V33.5156H34.7812V33.5625H34.8281C34.8281 33.5742 34.8281 33.6015 34.8281 33.6445V33.6562H34.875V33.75H34.9219V33.7969H34.9687C34.9687 33.8086 34.9687 33.8359 34.9687 33.8789V33.8906H35.0156V33.9844H35.0625V34.0312H35.1094V34.125H35.1562V34.1719H35.2031V34.2188H35.25V34.3125H35.2969V34.4062H35.3437V34.4531H35.3906V34.5469H35.4375C35.4375 34.5586 35.4375 34.5859 35.4375 34.6289V34.6406H35.4844V34.7344H35.5312V34.7812H35.5781V34.8281H35.625V34.875H35.6719C35.6719 34.8867 35.6719 34.914 35.6719 34.957V34.9688H35.7187V35.0625H35.7656V35.1094H35.8125V35.2031H35.8594V35.25H35.9062V35.3438H35.9531V35.3906H36C36 35.4023 36 35.4297 36 35.4727V35.4844H36.0469V35.5781H36.0937V35.625H36.1406V35.7188H36.1875V35.7656H36.2344V35.8594H36.2812V35.9062H36.3281V36H36.375V36.0469H36.4219V36.1406H36.4687V36.2344H36.5156C36.5156 36.2461 36.5156 36.2734 36.5156 36.3164V36.3281H36.5625V36.4219H36.6094V36.4688H36.6562V36.5156H36.7031V36.5625H36.75V36.6562H36.7969V36.7031H36.8437V36.7969H36.8906C36.8906 36.8086 36.8906 36.8359 36.8906 36.8789V36.8906H36.9375V36.9844H36.9844V37.0312H37.0312V37.0781H37.0781C37.0781 37.0898 37.0781 37.1172 37.0781 37.1602V37.1719H37.125V37.2656H37.1719V37.3125H37.2187V37.4062H37.2656V37.4531H37.3125C37.3125 37.4648 37.3125 37.4922 37.3125 37.5352V37.5469H37.3594V37.6406H37.4062V37.6875H37.4531V37.7812H37.5V37.8281H37.5469C37.5469 37.8398 37.5469 37.8672 37.5469 37.9102V37.9219H37.5937V38.0156H37.6406V38.0625H37.6875V38.1094H37.7344C37.7344 38.1211 37.7344 38.1484 37.7344 38.1914V38.2031H37.7812V38.2969H37.8281V38.3438H37.875V38.4375H37.9219V38.4844H37.9687V38.5781H38.0156C38.0156 38.5898 38.0156 38.6172 38.0156 38.6602V38.6719H38.0625V38.7656H38.1094V38.8125H38.1562V38.9062H38.2031V38.9531H38.25V39.0469H38.2969V39.0938H38.3437C38.3437 39.1055 38.3437 39.1328 38.3437 39.1758V39.1875H38.3906V39.2812H38.4375V39.3281H38.4844V39.375H38.5312C38.5312 39.3867 38.5312 39.414 38.5312 39.457V39.4688H38.5781V39.5625H38.625V39.6094H38.6719V39.7031H38.7187V39.75H38.7656V39.8438H38.8125V39.8906H38.8594V39.9023V40.0195V40.0312H38.9062V40.0781H38.9531V40.1719H39V40.2188H39.0469V40.3125H39.0937V40.3594H39.1406V40.4531H39.1875V40.5H39.2344V40.5117V40.6289V40.6406H39.2812V40.6875H39.3281V40.7344H39.375C39.375 40.7461 39.375 40.7734 39.375 40.8164V40.8281H39.4219V40.9219H39.4687V40.9688H39.5156V41.0156H39.5625V41.1094H39.6094V41.1562H39.6562V41.25H39.7031V41.2969H39.75V41.3906H39.7969V41.4375H39.8437V41.5312H39.8906V41.5781H39.9375V41.6719H39.9844V41.7188H40.0312V41.8125H40.0781V41.8594H40.125V41.9531H40.1719V42.0469H40.2187C40.2187 42.0586 40.2187 42.0859 40.2187 42.1289V42.1406H40.2656V42.2344H40.3125V42.2812H40.3594V42.3281H40.4062V42.375H40.4531V42.4219H40.5V42.4688H40.5469V42.5625H40.5937V42.6094H40.6406C40.6406 42.6211 40.6406 42.6484 40.6406 42.6914V42.7031H40.6875V42.7969H40.7344V42.8438H40.7812V42.8906H40.8281V42.9375H40.875V43.0312H40.9219V43.0781H40.9687V43.1719H41.0156V43.2188H41.0625V43.2656H41.1094V43.3125H41.1562V43.4062H41.2031V43.4531H41.25V43.5H41.2969V43.5938H41.3437V43.6406H41.3906V43.6875H41.4375V43.7344H41.4844V43.8281H41.5312V43.875H41.5781V43.9219H41.625V44.0156H41.6719V44.0625H41.7187V44.1094H41.7656V44.1562H41.8125V44.2031H41.8594V44.25H41.9062V44.2969H41.9531V44.3906H42V44.4375H42.0937V44.5312H42.1406V44.5781H42.1875V44.625H42.2344V44.6719H42.2812V44.7188H42.3281V44.7656H42.375V44.8125H42.4219V44.9062H42.4687V44.9531H42.5625V45H42.6094V45.0469H42.6562V45.0938H42.7031V45.1406H42.75V45.1875H42.7969V45.2812H42.8437V45.3281H42.9375V45.375H42.9844V45.4219H43.0312V45.4688H43.0781V45.5156H43.125V45.5625H43.2187V45.6094H43.2656V45.6562H43.3125V45.7031H43.3594V45.75H43.4062V45.7969H43.4531V45.8438H43.5V45.8906H43.5469V45.9375H43.5586H43.6758H43.6875V45.9844H43.7344V46.0312H43.7812V46.0781H43.8281V46.125H43.9219V46.1719H43.9687V46.2188H44.0625V46.2656H44.1562V46.3125C44.168 46.3125 44.1953 46.3125 44.2383 46.3125H44.25V46.3594H44.3437V46.4062H44.3906V46.4531H44.4844V46.5C44.4961 46.5 44.5234 46.5 44.5664 46.5H44.5781V46.5469H44.6719V46.5938H44.7187V46.6406H44.8125V46.6875H44.8594V46.7344H44.9062V46.7812H45V46.8281H45.0117H45.1289H45.1406V46.875H45.1523H45.2695H45.2812V46.9219H45.293H45.4102H45.4219V46.9688H45.4336H45.5508H45.5625V47.0156H45.5742H45.7383H45.75V47.0625H45.7617H45.9258H45.9375V47.0156H45.9844V46.9688H46.0312V46.9219H46.125V46.8281H46.1719V46.7812H46.2187V46.7344H46.2656V46.6875H46.3125V46.5938H46.3594V46.5H46.4062V46.4883V46.3711V46.3594H46.4531V46.2656H46.5V46.2539V46.1367V46.125H46.5469V46.1133V45.9961V45.9844H46.5937V45.9727V45.7617V45.75H46.6406V45.7383V45.6211V45.6094H46.6875V45.5977V45.3398V45.3281H46.7344V45.3164V44.918V44.9062H46.7812V44.8945V43.043V43.0312H46.7344V43.0195V42.4805V42.4688H46.6875V42.457V42.0586V42.0469H46.6406V42.0352V41.5898V41.5781H46.5937V41.5664V41.2617V41.25H46.5469V41.2383V40.8867V40.875H46.5V40.8633V40.6055V40.5938H46.4531V40.582V40.3242V40.3125H46.4062V40.3008V40.043V40.0312H46.3594V40.0195V39.7617V39.75H46.3125V39.7383V39.4805V39.4688H46.2656V39.457V39.2461V39.2344H46.2187V39.2227V39.0117V39H46.1719V38.9883V38.7773V38.7656H46.125V38.7539V38.5898V38.5781H46.0781V38.5664V38.3555V38.3438H46.0312V38.332V38.1211V38.1094H45.9844V38.0977V37.9336V37.9219H45.9375V37.9102V37.6992V37.6875H45.8906V37.6758V37.4648V37.4531H45.8437V37.4414V37.2773V37.2656H45.7969V37.2539V37.043V37.0312H45.75V37.0195V36.9023V36.8906H45.7031V36.8789V36.7148V36.7031H45.6562V36.6914V36.5273V36.5156H45.6094V36.5039V36.3398V36.3281H45.5625V36.3164V36.1523V36.1406H45.5156V36.1289V36.0117V36H45.4687V35.9883V35.8242V35.8125H45.4219V35.8008V35.6367V35.625H45.375V35.6133V35.4492V35.4375H45.3281V35.4258V35.3086V35.2969H45.2812V35.2852V35.1211V35.1094H45.2344V35.0977V34.9805V34.9688H45.1875V34.957V34.7461V34.7344H45.1406V34.6406H45.0937V34.6289V34.5117V34.5H45.0469V34.4883V34.3711V34.3594H45V34.3477V34.1836V34.1719H44.9531V34.1602V34.043V34.0312H44.9062V34.0195V33.8555V33.8438H44.8594V33.832V33.7148V33.7031H44.8125V33.6914V33.5742V33.5625H44.7656V33.5508V33.4336V33.4219H44.7187V33.4102V33.293V33.2812H44.6719V33.2695V33.1523V33.1406H44.625V33.1289V33.0117V33H44.5781V32.9883V32.8242V32.8125H44.5312V32.8008V32.6836V32.6719H44.4844V32.5781H44.4375V32.5664V32.4492V32.4375H44.3906V32.4258V32.2617V32.25H44.3437V32.1562H44.2969V32.1445V32.0273V32.0156H44.25V31.9219H44.2031V31.9102V31.793V31.7812H44.1562V31.7695V31.6523V31.6406H44.1094V31.6289V31.5117V31.5H44.0625V31.4062H44.0156V31.3945V31.2773V31.2656H43.9687V31.2539V31.1367V31.125H43.9219V31.1133V30.9961V30.9844H43.875V30.8906H43.8281V30.7969H43.7812V30.7852V30.668V30.6562H43.7344V30.6445V30.5273V30.5156H43.6875V30.5039V30.3867V30.375H43.6406V30.2812H43.5937V30.2695V30.1523V30.1406H43.5469V30.1289V30.0117V30H43.5V29.9062H43.4531V29.8945V29.7773V29.7656H43.4062V29.7539V29.6367V29.625H43.3594V29.5781H43.3125V29.5664V29.4492V29.4375H43.2656V29.3438H43.2187V29.25H43.1719V29.2383V29.1211V29.1094H43.125V29.0156H43.0781V29.0039V28.8867V28.875H43.0312V28.7812H42.9844V28.7695V28.6523V28.6406H42.9375V28.5469H42.8906V28.5352V28.418V28.4062H42.8437V28.3125H42.7969V28.3008V28.1836V28.1719H42.75V28.125H42.7031V28.1133V27.9961V27.9844H42.6562V27.8906H42.6094V27.8789V27.7617V27.75H42.5625V27.6562H42.5156V27.6445V27.5273V27.5156H42.4687V27.4219H42.4219V27.3281H42.375V27.2344H42.3281V27.2227V27.1055V27.0938H42.2812V27H42.2344V26.9062H42.1875V26.8125H42.1406V26.7188H42.0937V26.707V26.5898V26.5781H42.0469V26.4844H42V26.4727V26.3555V26.3438H41.9531V26.25H41.9062V26.2031H41.8594V26.1914V26.0742V26.0625H41.8125V25.9688H41.7656V25.875H41.7187V25.7812H41.6719V25.6875H41.625V25.5938H41.5781V25.5H41.5312V25.4883V25.3711V25.3594H41.4844V25.2656H41.4375V25.1719H41.3906V25.0781H41.3437V24.9844H41.2969V24.9727V24.8555V24.8438H41.25V24.75H41.2031C41.2031 24.7383 41.2031 24.711 41.2031 24.668V24.6562H41.1562V24.5625H41.1094V24.5156H41.0625V24.4219H41.0156V24.3281H40.9687V24.2344H40.9219V24.1406H40.875V24.0469H40.8281V23.9531H40.7812V23.8594H40.7344V23.7656H40.6875V23.6719H40.6406V23.5781H40.5937V23.4844H40.5469V23.3906H40.5V23.2969H40.4531V23.2031H40.4062V23.1094H40.3594V23.0156H40.3125V22.9688H40.2656V22.875H40.2187V22.7812H40.1719V22.6875H40.125V22.6758V22.5586V22.5469H40.0781V22.4531H40.0312V22.4062H39.9844V22.3125H39.9375V22.2656H39.8906V22.1719H39.8437V22.0781H39.7969V21.9844H39.75V21.8906H39.7031V21.7969H39.6562C39.6562 21.7852 39.6562 21.7578 39.6562 21.7148V21.7031H39.6094V21.6094H39.5625V21.5625H39.5156V21.4688H39.4687V21.375H39.4219V21.2812H39.375C39.375 21.2695 39.375 21.2422 39.375 21.1992V21.1875H39.3281V21.0938H39.2812V21.0469H39.2344V20.9531H39.1875V20.8594H39.1406V20.7656H39.0937C39.0937 20.7539 39.0937 20.7266 39.0937 20.6836V20.6719H39.0469V20.5781H39V20.5312H38.9531V20.4375H38.9062V20.3906H38.8594V20.2969H38.8125V20.2031H38.7656V20.1562H38.7187V20.0625H38.6719V19.9688H38.625C38.625 19.957 38.625 19.9297 38.625 19.8867V19.875H38.5781V19.7812H38.5312V19.7344H38.4844V19.6406H38.4375V19.5469H38.3906C38.3906 19.5352 38.3906 19.5078 38.3906 19.4648V19.4531H38.3437V19.3594H38.2969V19.3125H38.25V19.2656H38.2031V19.1719H38.1562C38.1562 19.1602 38.1562 19.1328 38.1562 19.0898V19.0781H38.1094V18.9844H38.0625V18.9375H38.0156V18.8906H37.9687C37.9687 18.8789 37.9687 18.8516 37.9687 18.8086V18.7969H37.9219V18.7031H37.875V18.6562H37.8281C37.8281 18.6445 37.8281 18.6172 37.8281 18.5742V18.5625H37.7812V18.4688H37.7344V18.4219H37.6875V18.375H37.6406V18.2812H37.5937C37.5937 18.2695 37.5937 18.2422 37.5937 18.1992V18.1875H37.5469V18.0938H37.5V18.0469H37.4531C37.4531 18.0352 37.4531 18.0078 37.4531 17.9648V17.9531H37.4062V17.8594H37.3594V17.8125H37.3125V17.7188H37.2656V17.6719H37.2187C37.2187 17.6602 37.2187 17.6328 37.2187 17.5898V17.5781H37.1719V17.4844H37.125V17.4375H37.0781V17.3906H37.0312V17.2969H36.9844V17.25H36.9375C36.9375 17.2383 36.9375 17.211 36.9375 17.168V17.1562H36.8906V17.0625H36.8437V17.0156H36.7969V16.9688H36.75V16.957V16.8398V16.8281H36.7031V16.7812H36.6562V16.7344H36.6094V16.6406H36.5625V16.5938H36.5156V16.5H36.4687V16.4531H36.4219V16.4062H36.375C36.375 16.3945 36.375 16.3672 36.375 16.3242V16.3125H36.3281V16.2188H36.2812V16.1719H36.2344V16.125H36.1875V16.0312H36.1406V15.9844H36.0937V15.9375H36.0469C36.0469 15.9258 36.0469 15.8985 36.0469 15.8555V15.8438H36V15.75H35.9531V15.7031H35.9062V15.6562H35.8594V15.5625H35.8125V15.5156H35.7656V15.4219H35.7187V15.375H35.6719V15.2812H35.625V15.2344H35.5781V15.1875H35.5312V15.0938H35.4844V15.0469H35.4375V15H35.3906V14.9531H35.3437C35.3437 14.9414 35.3437 14.9141 35.3437 14.8711V14.8594H35.2969V14.7656H35.25V14.7188H35.2031V14.6719H35.1562V14.625H35.1094V14.5312H35.0625V14.4844H35.0156V14.4375H34.9687V14.3438H34.9219V14.2969H34.875V14.25H34.8281V14.1562H34.7812V14.1094H34.7344V14.0625H34.6875V13.9688H34.6406V13.9219H34.5937V13.875H34.5469V13.7812H34.4531V13.7344H34.4062V13.6875H34.3594V13.5938H34.3125V13.5469H34.2656V13.4531H34.2187V13.4062H34.1719V13.3594H34.125V13.3125H34.0781V13.2656H34.0312V13.1719H33.9844V13.125H33.9375V13.0781H33.8906V13.0312H33.8437V12.9844H33.7969V12.9375H33.75V12.8906H33.7031V12.7969H33.6562V12.75H33.6094V12.7031H33.5625V12.6562H33.5156V12.6094H33.4687V12.5625H33.4219V12.5156H33.375V12.4688H33.3281V12.4219H33.2812V12.375H33.2344V12.3281H33.1875C33.1875 12.3164 33.1875 12.2891 33.1875 12.2461V12.2344H33.1406V12.1406H33.0937V12.0938H33.0469V12.0469H33V12H32.9062V11.9531H32.8594V11.9062H32.8125V11.8594H32.7656V11.8125H32.7187V11.7656H32.6719V11.7188H32.625V11.6719H32.5781V11.5781H32.5312V11.5312H32.4844V11.4844H32.4375V11.4375H32.3906V11.3906H32.2969V11.3438H32.25V11.2969H32.2031V11.25H32.1562V11.2031H32.0625V11.1562H32.0156V11.1094H31.9687V11.0625H31.9219V11.0156H31.875V10.9688H31.8281V10.9219H31.7812V10.875H31.7344V10.8281H31.6875V10.7812H31.5937V10.7344H31.5469V10.6875H31.5V10.6406H31.4531V10.5938H31.4062V10.5469H31.3125V10.5H31.2656V10.4531H31.2187V10.4062H31.1719V10.3594H31.0781V10.3125H31.0312V10.2656H30.9375V10.2188H30.8906V10.1719H30.8437V10.125H30.7969V10.0781H30.75V10.0312H30.7031V9.98438H30.6094V9.9375H30.5625V9.89062C30.5508 9.89062 30.5235 9.89062 30.4805 9.89062H30.4687V9.84375H30.375V9.79688H30.3281V9.75H30.2344V9.70312H30.1875V9.65625H30.0937V9.60938H30.0469V9.5625C30.0352 9.5625 30.0078 9.5625 29.9648 9.5625H29.9531V9.51562H29.8594V9.46875H29.8125V9.42188H29.7656V9.375H29.6719V9.32812H29.625V9.28125H29.5312V9.23438H29.4844V9.1875H29.3906V9.14062H29.3437V9.09375H29.25V9.04688H29.2031V9C29.1914 9 29.1641 9 29.1211 9H29.1094V8.95312H29.0156V8.90625H28.9687V8.85938H28.875V8.8125H28.7812V8.76562C28.7695 8.76562 28.7422 8.76562 28.6992 8.76562H28.6875V8.71875H28.5937V8.67188H28.5469V8.625H28.4531V8.57812H28.3594V8.53125H28.3125V8.48438H28.2187V8.4375C28.207 8.4375 28.1797 8.4375 28.1367 8.4375H28.125V8.39062H28.0312V8.34375H27.9844V8.29688H27.8906V8.25H27.7969V8.20312H27.7031V8.15625H27.6094V8.10938H27.5156V8.0625H27.4219V8.01562H27.3281V7.96875H27.2344V7.92188H27.1406V7.875C27.1289 7.875 27.1016 7.875 27.0586 7.875H27.0469V7.82812H26.9531V7.78125H26.9062V7.73438H26.8125V7.6875C26.8008 7.6875 26.7735 7.6875 26.7305 7.6875H26.7187V7.64062H26.625V7.59375H26.5781V7.54688C26.5664 7.54688 26.5391 7.54688 26.4961 7.54688H26.4844V7.5H26.3906V7.45312H26.3437V7.35938H26.2969V7.3125H26.25V7.30078V7.18359V7.17188H26.2969V7.07812H26.3437V7.03125H26.3906V6.98438H26.4375V6.9375H26.5312V6.89062H26.543H26.6602H26.6719V6.84375H26.7656V6.79688H26.7773H26.8945H26.9062V6.75H26.918H27.0352H27.0469V6.70312H27.0586H27.1758H27.1875V6.65625H27.1992H27.3164H27.3281V6.60938H27.3398H27.5039H27.5156V6.5625H27.5273H27.6914H27.7031V6.51562H27.7148H27.8789H27.8906V6.46875H27.9023H28.0664H28.0781V6.42188H28.0898H28.3477H28.3594V6.375H28.3711H28.5352H28.5469V6.32812H28.5586H28.7695H28.7812V6.28125H28.793H29.0977H29.1094V6.23438H29.1211H29.2852H29.2969V6.1875H29.3086H29.4727H29.4844V6.14062H29.4961H29.707H29.7187V6.09375H29.7305H29.8945H29.9062V6.04688H29.918H30.082H30.0937V6H30.1055H30.2227H30.2344V5.95312H30.2461H30.457H30.4687V5.90625H30.4805H30.6914H30.7031V5.85938H30.7148H30.832H30.8437V5.8125H30.8555H31.0195H31.0312V5.76562H31.043H31.3477H31.3594V5.71875H31.3711H31.5352H31.5469V5.67188H31.5586H31.9102H31.9219V5.625H31.9336H32.1914H32.2031V5.57812H32.2148H32.5195H32.5312V5.53125H32.543H32.707H32.7187V5.48438H32.7305H32.9414H32.9531V5.4375H32.9648H33.2695H33.2812V5.39062H33.293H33.5977H33.6094V5.34375H33.6211H33.7852H33.7969V5.29688H33.8086H34.0195H34.0312V5.25H34.043H34.3008H34.3125V5.20312H34.3242H34.6758H34.6875V5.15625H34.6992H34.957H34.9687V5.10938H34.9805H35.4727H35.4844V5.0625H35.4961H35.8945H35.9062V5.01562H35.918H36.7852H36.7969V4.96875H36.8086H38.0039H38.0156V4.92188H38.0273H38.8945H38.9062V4.875H38.918H39.5508H39.5625V4.82812H39.5742H39.7383H39.75V4.78125H39.7617H40.0664H40.0781V4.73438H40.0898H40.3477H40.3594V4.6875H40.3711H40.6758H40.6875V4.64062H40.6992H41.1445H41.1562V4.59375H41.168H41.3789H41.3906V4.54688H41.4023H41.8008H41.8125V4.5H41.8242H42.1289H42.1406V4.45312H42.1523H42.5508H42.5625V4.40625H42.5742H43.0195H43.0312V4.35938H43.043H43.582H43.5937V4.3125H43.6055H44.2852H44.2969V4.26562H44.3086H45.3164H45.3281V4.21875H45.375V4.26562H45.4687V4.21875H45.4805H46.2539H46.2656V4.17188H46.2773H46.7227H46.7344V4.125H46.7461H47.2383H47.25V4.07812H47.2617H47.3789H47.3906V4.03125H47.4023H47.5664H47.5781V3.98438H47.5898H47.8008H47.8125V3.9375H47.8242H47.9883H48V3.89062H48.0117H48.1289H48.1406V3.84375H48.1523H48.3164H48.3281V3.79688Z" fill="#010100" stroke="#010100"/>
</g>
</g>
<defs>
<clipPath id="clip0_9_15">
<rect width="60" height="60" fill="white"/>
</clipPath>
</defs>
</svg>
